<svg width="249" height="247" viewBox="0 0 249 247" fill="none" xmlns="http://www.w3.org/2000/svg">
<path d="M45.6216 227.576C44.2378 229.951 43.862 232.774 44.5766 235.424C45.2913 238.074 47.038 240.334 49.4324 241.707C51.8268 243.079 54.6729 243.452 57.3444 242.743C60.016 242.034 62.2942 240.302 63.6779 237.927L77.1395 215.67C71.005 212.377 65.2338 208.457 59.9196 203.976L45.6216 227.576ZM189.084 203.976C183.769 208.456 177.998 212.375 171.865 215.67L185.326 237.927C186.011 239.103 186.923 240.133 188.01 240.96C189.097 241.786 190.337 242.392 191.66 242.743C192.982 243.094 194.362 243.184 195.72 243.006C197.077 242.828 198.386 242.387 199.572 241.707C200.757 241.027 201.796 240.123 202.629 239.045C203.463 237.967 204.074 236.736 204.427 235.424C204.781 234.112 204.871 232.744 204.692 231.397C204.513 230.05 204.068 228.752 203.383 227.576L189.084 203.976Z" fill="#F0534A"/>
<path d="M45.6216 227.576C44.2378 229.951 43.862 232.774 44.5766 235.424C45.2913 238.074 47.038 240.334 49.4324 241.707C51.8268 243.079 54.6729 243.452 57.3444 242.743C60.016 242.034 62.2942 240.302 63.6779 237.927L72.5291 223.292C66.4097 219.98 60.6227 216.097 55.247 211.694L45.6216 227.576ZM193.753 211.694C188.377 216.098 182.589 219.981 176.467 223.292L185.318 237.927C186.702 240.302 188.98 242.034 191.652 242.743C194.323 243.452 197.169 243.079 199.564 241.707C201.958 240.334 203.705 238.074 204.42 235.424C205.134 232.774 204.758 229.951 203.375 227.576L193.753 211.694Z" fill="#8AA900"/>
<path d="M59.9156 203.976L55.2468 211.694C60.6238 216.097 66.4121 219.98 72.5329 223.292L77.1433 215.67C71.0061 212.377 65.2322 208.458 59.9156 203.976ZM189.084 203.976C183.769 208.456 177.998 212.375 171.864 215.67L176.475 223.292C182.593 219.981 188.379 216.097 193.753 211.694L189.084 203.976Z" fill="#88A40A"/>
<path d="M124.5 228.683C180.367 228.683 225.656 183.758 225.656 128.34C225.656 72.9213 180.367 27.9958 124.5 27.9958C68.6329 27.9958 23.3438 72.9213 23.3438 128.34C23.3438 183.758 68.6329 228.683 124.5 228.683Z" fill="#B5D135"/>
<path d="M124.5 27.9958C121.948 27.9958 119.419 28.0885 116.913 28.2737C97.8447 39.4883 83.0171 56.6048 74.7094 76.9921C66.4018 97.3794 65.0741 119.909 70.9303 141.118C76.7866 162.326 89.5026 181.04 107.124 194.382C124.745 207.725 146.296 214.957 168.464 214.967C171.016 214.967 173.522 214.855 176.043 214.67C195.116 203.461 209.949 186.347 218.26 165.96C226.572 145.573 227.902 123.042 222.045 101.832C216.189 80.6225 203.471 61.9083 185.847 48.5679C168.223 35.2275 146.669 27.9996 124.5 27.9958Z" fill="#E6F992"/>
<path d="M161.313 77.9246C160.897 77.6265 160.426 77.4129 159.927 77.2962C159.428 77.1794 158.91 77.1618 158.404 77.2443C157.897 77.3268 157.413 77.5078 156.977 77.7769C156.542 78.046 156.164 78.3979 155.866 78.8122L126.2 119.814C127.519 120.071 128.766 120.61 129.854 121.392C130.942 122.174 131.846 123.182 132.503 124.345L162.204 83.3123C162.502 82.9005 162.716 82.4345 162.833 81.9409C162.949 81.4473 162.967 80.9356 162.884 80.4353C162.801 79.935 162.62 79.4557 162.35 79.0249C162.081 78.5941 161.728 78.2202 161.313 77.9246ZM125.072 137.988C125.145 138.121 125.225 138.25 125.313 138.374L151.52 165.239C152.239 165.971 153.22 166.39 154.249 166.405C155.278 166.421 156.272 166.031 157.012 165.321C157.752 164.612 158.178 163.64 158.198 162.619C158.217 161.598 157.828 160.611 157.115 159.875L132.021 134.152C131.223 135.263 130.185 136.184 128.983 136.848C127.781 137.512 126.445 137.901 125.072 137.988Z" fill="black"/>
<path d="M121.109 43.4179V28.5525C122.236 28.5164 123.365 28.4958 124.5 28.4958C125.632 28.4958 126.759 28.534 127.891 28.5747V43.4179C127.891 44.3076 127.534 45.1616 126.899 45.7919C126.263 46.4224 125.401 46.7773 124.5 46.7773C123.599 46.7773 122.737 46.4224 122.101 45.7919C121.466 45.1616 121.109 44.3076 121.109 43.4179ZM41.3986 131.852L41.7507 132.207L41.3986 131.852C40.763 132.483 39.9002 132.837 38.9996 132.837H23.9491C23.8817 131.345 23.8438 129.844 23.8438 128.32C23.8438 127.737 23.8638 127.156 23.8843 126.562C23.8893 126.415 23.8944 126.267 23.8993 126.119H38.9996C39.9002 126.119 40.763 126.474 41.3986 127.104C42.034 127.734 42.3903 128.588 42.3903 129.478C42.3903 130.368 42.034 131.222 41.3986 131.852ZM122.058 209.687C122.694 209.057 123.557 208.702 124.457 208.702C125.358 208.702 126.221 209.057 126.856 209.687C127.492 210.317 127.848 211.171 127.848 212.061V228.105C126.734 228.145 125.644 228.183 124.5 228.183C123.353 228.183 122.213 228.145 121.067 228.104V212.061C121.067 211.171 121.423 210.317 122.058 209.687ZM206.874 130.714C206.238 130.083 205.882 129.229 205.882 128.34C205.882 127.45 206.238 126.596 206.874 125.966C207.509 125.335 208.372 124.98 209.273 124.98H225.077C225.118 126.102 225.156 127.218 225.156 128.34C225.156 129.461 225.118 130.577 225.077 131.699H209.273C208.372 131.699 207.509 131.344 206.874 130.714Z" fill="white" stroke="black"/>
<path d="M102.394 18.5867C95.6122 10.773 86.1931 5.67795 75.8986 4.25484C65.6042 2.83173 55.1397 5.17806 46.4631 10.8548C37.7864 16.5316 31.4921 25.1499 28.7579 35.0972C26.0236 45.0445 27.0366 55.6392 31.6075 64.8992C48.2527 40.937 73.635 24.3304 102.394 18.5867ZM217.393 64.9146C221.955 55.6553 222.962 45.0646 220.225 35.1224C217.489 25.1801 211.196 16.5667 202.522 10.8923C193.849 5.21783 183.39 2.87069 173.099 4.28961C162.808 5.70853 153.391 10.7964 146.607 18.6021C175.365 24.3458 200.747 40.9525 217.393 64.9146Z" fill="#8AA900"/>
<path d="M134.4 128.845C134.4 134.286 129.952 138.704 124.457 138.704C118.962 138.704 114.515 134.286 114.515 128.845C114.515 123.404 118.962 118.987 124.457 118.987C129.952 118.987 134.4 123.404 134.4 128.845Z" fill="white" stroke="black"/>
</svg>
