<svg width="250" height="250" viewBox="0 0 250 250" fill="none" xmlns="http://www.w3.org/2000/svg">
<path d="M209.655 224.836C217.657 220.502 225.689 215.865 231.867 209.182C238.045 202.499 242.198 193.382 240.923 184.371C239.75 176.085 234.25 168.94 232.791 160.699C230.285 146.558 239.967 133.281 242.226 119.098C243.925 108.433 241.181 97.1296 234.78 88.4312C228.944 80.5021 220.355 74.8134 215.088 66.4958C207.99 55.2875 207.623 40.4014 198.955 30.3576C192.677 23.0826 183.142 19.6639 174.029 16.6146C157.879 11.2106 141.397 5.99837 124.378 5.38054C107.359 4.76272 89.478 9.27452 77.1894 21.0655C73.3699 24.7303 70.1144 29.1141 68.4674 34.1449C64.5732 46.0403 70.1484 58.6618 73.6438 70.6803C74.3276 73.0315 74.9368 75.5125 74.4204 77.9058C73.9116 80.2634 72.3681 82.2548 70.7412 84.0354C63.1613 92.3322 53.0732 97.8099 43.3384 103.425C33.6037 109.039 23.7667 115.179 17.2053 124.303C10.6438 133.426 8.06876 146.291 13.7715 155.974C15.984 159.731 19.359 162.966 20.2553 167.233C21.8398 174.775 15.266 181.223 11.4 187.89C4.98126 198.96 6.16598 213.948 14.2442 223.872C22.3225 233.796 36.7583 237.997 48.9002 233.958L209.655 224.836Z" fill="#89A412" fill-opacity="0.2"/>
<path d="M33.8926 223.418C35.1035 201.622 18.9583 172.221 2.40927 170.776C-3.64513 183.458 6.79978 217.012 22.2151 223.152C37.6306 229.292 33.8926 223.418 33.8926 223.418Z" fill="#B5D135"/>
<path d="M24.3345 218.34C24.2558 216.703 23.941 214.972 23.5618 213.268C23.1776 211.559 22.7139 209.852 22.2125 208.154C21.2077 204.758 20.0447 201.394 18.7882 198.064C17.5285 194.736 16.1711 191.44 14.6852 188.202C13.9382 186.585 13.1586 184.982 12.3134 183.414C11.884 182.634 11.45 181.856 10.9692 181.106C10.4917 180.356 9.99283 179.611 9.36182 178.977C10.0301 179.574 10.5764 180.293 11.0998 181.018C11.6273 181.742 12.1088 182.498 12.5864 183.256C13.5276 184.78 14.4046 186.342 15.25 187.921C16.9326 191.083 18.4905 194.311 19.9544 197.584C21.4155 200.858 22.7864 204.176 24.0102 207.565C24.6213 209.259 25.197 210.972 25.7 212.721C26.1963 214.475 26.6426 216.248 26.8514 218.173L24.3345 218.34Z" fill="#CCE9FF"/>
<path d="M41.7887 219.006C41.7887 219.006 41.476 219.869 40.1262 220.139C39.8537 220.194 39.5385 220.225 39.175 220.217C37.6815 220.194 35.3683 219.556 31.8188 217.467C23.1431 212.356 22.9792 191.562 27.785 184.518C37.5757 186.917 44.5334 206.047 41.7887 219.006Z" fill="#8AA900"/>
<path d="M40.1261 220.139C39.8537 220.194 39.5384 220.225 39.175 220.217C39.1699 220.159 39.1625 220.104 39.1574 220.046C38.8396 217.139 38.3627 214.241 37.7826 211.365C37.2048 208.487 36.5187 205.628 35.7014 202.808C35.2903 201.398 34.8437 199.995 34.3289 198.62C34.1951 198.28 34.069 197.934 33.9252 197.596L33.7134 197.087L33.4863 196.587C33.1711 195.926 32.843 195.263 32.4016 194.672C32.8632 195.247 33.2164 195.898 33.5569 196.552L33.8042 197.046L34.0338 197.548C34.1903 197.884 34.3289 198.224 34.4752 198.562C35.0403 199.925 35.5398 201.315 36.0014 202.712C36.9222 205.515 37.7143 208.358 38.4005 211.229C39.0866 214.1 39.6669 216.996 40.0958 219.927L40.1261 220.139Z" fill="#0E538C"/>
<path d="M81.6011 219.156C81.6011 219.156 81.3268 219.912 80.1439 220.149C79.905 220.197 79.6287 220.224 79.3104 220.217C78.0013 220.197 75.9738 219.638 72.8629 217.807C65.259 213.327 65.1152 195.101 69.3273 188.928C77.9085 191.031 84.0067 207.797 81.6011 219.156Z" fill="#B5D135"/>
<path opacity="0.5" d="M80.1439 220.149C79.905 220.197 79.6286 220.224 79.3104 220.217C79.306 220.166 79.2992 220.118 79.2948 220.067C79.0164 217.519 78.5983 214.979 78.0897 212.458C77.5835 209.935 76.9819 207.43 76.2657 204.958C75.9053 203.722 75.5138 202.493 75.0629 201.288C74.9458 200.989 74.8351 200.687 74.7092 200.39L74.5235 199.943L74.3245 199.506C74.0481 198.926 73.7606 198.345 73.3738 197.828C73.7784 198.332 74.0879 198.902 74.3865 199.475L74.6032 199.908L74.8043 200.348C74.9414 200.642 75.0631 200.941 75.1914 201.237C75.6867 202.431 76.1245 203.649 76.5291 204.874C77.336 207.331 78.0305 209.823 78.6319 212.339C79.2333 214.855 79.7418 217.393 80.1178 219.963L80.1439 220.149Z" fill="#51AEF4"/>
<path d="M215.644 223.418C214.433 201.622 230.578 172.221 247.127 170.776C253.181 183.458 242.736 217.012 227.321 223.152C211.906 229.292 215.644 223.418 215.644 223.418Z" fill="#6C8404"/>
<path d="M225.202 218.34C225.28 216.703 225.595 214.972 225.974 213.268C226.359 211.559 226.822 209.852 227.324 208.154C228.328 204.758 229.491 201.394 230.748 198.064C232.008 194.736 233.365 191.44 234.851 188.202C235.598 186.585 236.378 184.982 237.223 183.414C237.652 182.634 238.086 181.856 238.567 181.106C239.044 180.356 239.543 179.611 240.174 178.977C239.506 179.574 238.96 180.293 238.436 181.018C237.909 181.742 237.427 182.498 236.95 183.256C236.009 184.78 235.131 186.342 234.286 187.921C232.603 191.083 231.046 194.311 229.582 197.584C228.121 200.858 226.75 204.176 225.526 207.565C224.915 209.259 224.339 210.972 223.836 212.721C223.34 214.475 222.894 216.248 222.685 218.173L225.202 218.34ZM183.53 224.231C184.353 209.431 173.39 189.467 162.153 188.486C158.041 197.098 165.134 219.882 175.601 224.051C186.069 228.22 183.53 224.231 183.53 224.231Z" fill="#5F7500" fill-opacity="0.63"/>
<path d="M177.04 220.783C176.987 219.671 176.773 218.496 176.516 217.339C176.255 216.178 175.94 215.019 175.6 213.867C174.917 211.56 174.128 209.276 173.274 207.015C172.419 204.755 171.497 202.517 170.488 200.318C169.981 199.22 169.452 198.132 168.878 197.067C168.586 196.538 168.291 196.009 167.965 195.5C167.641 194.991 167.302 194.485 166.874 194.055C167.327 194.46 167.698 194.949 168.054 195.44C168.412 195.932 168.739 196.445 169.063 196.96C169.702 197.995 170.298 199.056 170.872 200.128C172.014 202.275 173.072 204.467 174.066 206.689C175.058 208.912 175.989 211.165 176.82 213.466C177.235 214.617 177.626 215.78 177.968 216.968C178.305 218.159 178.608 219.363 178.75 220.67L177.04 220.783Z" fill="white" fill-opacity="0.6"/>
<path d="M178.837 219.342C179.207 212.219 185.483 203.232 190.91 203.342C192.433 207.675 187.864 218.21 182.641 219.665C177.417 221.12 178.837 219.342 178.837 219.342Z" fill="#5E7300"/>
<path d="M182.121 218.027C182.204 217.498 182.366 216.947 182.549 216.407C182.734 215.865 182.944 215.327 183.167 214.793C183.612 213.724 184.108 212.672 184.633 211.634C185.159 210.597 185.715 209.574 186.311 208.574C186.61 208.075 186.92 207.581 187.249 207.101C187.416 206.863 187.585 206.625 187.767 206.399C187.948 206.172 188.136 205.947 188.364 205.763C188.126 205.934 187.923 206.149 187.728 206.366C187.531 206.582 187.348 206.811 187.166 207.041C186.809 207.504 186.466 207.978 186.138 208.463C185.481 209.433 184.859 210.425 184.271 211.437C183.681 212.45 183.12 213.48 182.603 214.538C182.345 215.067 182.098 215.603 181.874 216.154C181.651 216.707 181.444 217.267 181.309 217.885L182.121 218.027Z" fill="#2797E2"/>
<path d="M76.0334 219.342C76.4033 212.219 82.6785 203.232 88.1056 203.342C89.6285 207.675 85.0598 218.21 79.8366 219.665C74.6132 221.12 76.0334 219.342 76.0334 219.342Z" fill="#8AA900"/>
<path d="M79.3164 218.027C79.3993 217.498 79.5623 216.947 79.7451 216.407C79.9299 215.865 80.1403 215.327 80.3625 214.793C80.8079 213.724 81.3035 212.672 81.8285 211.634C82.3544 210.597 82.9109 209.574 83.5069 208.574C83.8062 208.075 84.1157 207.581 84.4451 207.101C84.612 206.863 84.7803 206.625 84.9627 206.399C85.1442 206.172 85.3322 205.947 85.5595 205.763C85.3215 205.934 85.1187 206.149 84.9234 206.366C84.7266 206.582 84.5437 206.811 84.362 207.041C84.0046 207.504 83.6616 207.978 83.3333 208.463C82.6773 209.433 82.0546 210.425 81.4664 211.437C80.8771 212.45 80.3155 213.48 79.7991 214.538C79.5412 215.067 79.2942 215.603 79.0694 216.154C78.8468 216.707 78.6396 217.267 78.5044 217.885L79.3164 218.027Z" fill="#0E538C"/>
<path d="M207.747 219.006C207.747 219.006 208.06 219.869 209.41 220.139C209.682 220.194 209.998 220.225 210.361 220.217C211.855 220.194 214.168 219.556 217.717 217.467C226.393 212.356 226.557 191.562 221.751 184.518C211.96 186.917 205.003 206.047 207.747 219.006Z" fill="#2A94F4"/>
<path d="M209.41 220.139C209.682 220.194 209.998 220.225 210.361 220.217C210.366 220.159 210.374 220.104 210.379 220.046C210.696 217.139 211.173 214.241 211.753 211.365C212.331 208.487 213.017 205.628 213.835 202.808C214.246 201.398 214.692 199.995 215.207 198.62C215.341 198.28 215.467 197.934 215.611 197.596L215.823 197.087L216.05 196.587C216.365 195.926 216.693 195.263 217.134 194.672C216.673 195.247 216.32 195.898 215.979 196.552L215.732 197.046L215.502 197.548C215.346 197.884 215.207 198.224 215.061 198.562C214.496 199.925 213.996 201.315 213.535 202.712C212.614 205.515 211.822 208.358 211.136 211.229C210.449 214.1 209.869 216.996 209.44 219.927L209.41 220.139Z" fill="#2A94F4"/>
<path d="M246.88 244.675H3.11968C1.40394 244.675 0 243.271 0 241.555V219.793C0 218.077 1.40394 216.673 3.11968 216.673H246.88C248.596 216.673 250 218.077 250 219.793V241.555C250 243.271 248.596 244.675 246.88 244.675Z" fill="#8AA900"/>
<path d="M130.168 232.063C172.905 232.063 207.55 230.594 207.55 228.782C207.55 226.971 172.905 225.502 130.168 225.502C87.432 225.502 52.7872 226.971 52.7872 228.782C52.7872 230.594 87.432 232.063 130.168 232.063Z" fill="#F2F2F2"/>
<path d="M103.501 65.222L134.336 45.2086L137.624 35.7109L137.421 46.3054L111.331 69.0095L103.501 65.222Z" fill="#DF9481"/>
<path d="M91.7644 72.2628L111.288 60.1637L115.237 74.6449L93.1866 89.1262L91.7644 72.2628Z" fill="#FFBE55"/>
<path opacity="0.2" d="M91.7644 72.2628L111.288 60.1637L115.237 74.6449L93.1866 89.1262L91.7644 72.2628Z" fill="#FFBE55"/>
<path d="M52.0081 162.569L43.8097 178.939L42.65 162.821L46.5185 161.021L42.2794 160.382L42.2938 158.083L51.9695 157.868L52.0081 162.569Z" fill="#FFBE55"/>
<path d="M83.235 111.542C83.235 111.542 92.6128 147.079 89.8982 151.768C87.1836 156.456 51.4899 164.175 51.4899 164.175L51.4003 157.197C51.4003 157.197 76.3468 145.638 79.3084 146.378C73.3857 140.949 67.5243 113.27 67.5243 113.27L83.235 111.542Z" fill="#093C59"/>
<path d="M46.2017 191.53L53.2276 208.437L40.2736 198.776L41.4415 194.672L38.1861 197.462L36.4561 195.948L42.6199 188.486L46.2017 191.53Z" fill="#FFBE55"/>
<path d="M81.4671 111.861C81.4671 111.861 60.6467 161.254 48.1863 194.672C40.5354 194.672 41.478 187.235 41.478 187.235C41.478 187.235 56.5819 117.169 65.1826 106.838C78.4111 107.738 81.4671 111.861 81.4671 111.861Z" fill="#0B4870"/>
<path d="M67.5241 89.1262L42.3523 112.402L28.7655 114.849L42.2458 115.74L69.0312 97.6927L67.5241 89.1262Z" fill="#DF9481"/>
<path d="M90.1926 66.4539C95.9287 66.4539 100.579 61.5438 100.579 55.4868C100.579 49.4298 95.9287 44.5197 90.1926 44.5197C84.4565 44.5197 79.8065 49.4298 79.8065 55.4868C79.8065 61.5438 84.4565 66.4539 90.1926 66.4539Z" fill="#0B4870"/>
<path d="M100.003 48.1531C100.003 48.1531 102.788 65.5304 99.5571 69.0093C89.7562 68.341 87.3062 64.6366 84.856 59.5132C82.4055 54.3901 87.9743 43.9209 100.003 48.1531Z" fill="#DF9481"/>
<path d="M102.456 48.1382C101.957 51.9461 87.1908 61.6627 83.9535 59.9669C83.491 53.0299 87.3616 40.4102 102.456 48.1382Z" fill="#0B4870"/>
<path d="M86.3514 60.3418C85.1178 59.0828 83.9271 58.9365 83.7301 60.5504C83.5519 62.0101 85.4651 64.1543 86.8526 63.8159C88.2401 63.4777 86.3514 60.3418 86.3514 60.3418Z" fill="#DF9481"/>
<path d="M86.8618 46.2752C83.5088 41.6607 77.6289 39.0116 71.9509 39.5574C70.0271 39.7424 68.0817 40.2972 66.5845 41.5197C65.0875 42.7421 64.1178 44.7199 64.4581 46.6225C65.0178 49.7521 68.7815 51.9299 68.4259 55.0894C68.2699 56.4741 67.2903 57.6581 66.1136 58.4049C64.937 59.1516 63.5706 59.5301 62.2266 59.8986C59.2072 60.7266 56.0935 61.6009 53.6551 63.5646C51.2166 65.5283 49.618 68.8928 50.6599 71.8454C51.337 73.7644 53.0555 75.5028 52.6405 77.4949C52.2127 79.5482 49.7754 80.4901 48.7238 82.3046C47.6935 84.082 48.2317 86.4704 49.5988 88.0037C50.966 89.537 52.9921 90.332 55.012 90.7067C58.2685 91.3111 62.2051 90.6232 63.8178 87.7301C64.941 85.7151 64.6069 83.1875 63.7928 81.0289C62.9787 78.8704 61.7275 76.8882 61.0245 74.691C60.3217 72.4938 60.2583 69.8947 61.6759 68.0748C63.1636 66.1648 65.7798 65.6537 68.143 65.128C70.5062 64.6023 73.1245 63.6968 74.1079 61.4845C74.9967 59.4852 74.2863 56.8896 75.665 55.1908C76.9051 53.6623 79.1745 53.6454 81.0437 53.0294C83.6169 52.1815 85.6699 49.9125 86.2572 47.2678L86.8618 46.2752Z" fill="#0B4870"/>
<path d="M93.1866 65.991L92.7035 71.8368L96.6671 81.3831L87.3616 72.0984L86.8618 63.1426L93.1866 65.991Z" fill="#DF9481"/>
<path d="M98.4543 92.401L91.7627 99.2202L85.5388 115.74L67.6261 109.389L61.5655 107.237L67.5233 102.027C67.5233 102.027 61.3634 95.6084 60.1617 90.9086C71.39 81.3957 80.0097 73.7577 87.3606 72.0991H89.3205L96.6678 81.3815L98.4543 92.401Z" fill="#FFBE55"/>
<path opacity="0.5" d="M79.3081 91.6354L67.6262 109.389L61.5653 107.237L67.5234 102.027L79.3081 91.6354Z" fill="#FFBE55"/>
<path d="M208.916 162.582L221.996 179.858L217.139 152.818L207.057 154.697L208.916 162.582Z" fill="#FFBE55"/>
<path d="M177.313 118.31C173.456 129.792 168.826 146.079 174.751 155.332C180.676 164.586 210.017 163.133 210.017 163.133L208.858 154.594C208.858 154.594 188.53 150.447 189.413 147.803C190.296 145.16 195.393 126.083 194.622 123.517C193.851 120.951 192.796 113.222 192.796 113.222L177.313 118.31Z" fill="#B1D9F2"/>
<path d="M213.357 196.246L198.139 211.672L224.201 202.98L220.893 193.272L213.357 196.246Z" fill="#FFBE55"/>
<path d="M178.77 116.14C178.976 120.232 211.928 196.829 211.928 196.829L221.592 194.512C221.592 194.512 204.094 124.17 202.302 114.956C200.509 105.743 178.77 116.14 178.77 116.14Z" fill="#CCE9FF"/>
<path d="M215.014 92.2031L217.757 95.6315L224.37 118.69L226.16 128.41L221.418 127.035L220.457 120.778L219.226 123.247L217.873 123.497L219.549 118.19L211.947 99.2991L207.144 96.0832L215.014 92.2031ZM173.349 63.6177L141.547 45.1797L137.624 35.7109L137.421 46.3054L165.72 67.7938L173.349 63.6177Z" fill="#FFE3CA"/>
<path d="M184.466 69.6815L169.39 58.7523L161.428 67.344L179.502 82.9988L184.466 69.6815Z" fill="#0B3E5B"/>
<path d="M184.465 69.6815C183.861 70.2199 178.048 74.6463 175.37 79.6975C172.693 84.7488 175.559 120.404 175.559 120.404L206.699 118.837L200.483 92.497L206.689 99.1982L217.48 90.1308C217.48 90.1308 205.999 74.4634 203.564 72.8336C198.997 69.7778 184.465 69.6815 184.465 69.6815ZM185.254 44.875C187.743 45.0597 199.99 47.0181 189.857 61.8396C187.728 65.7437 185.254 44.875 185.254 44.875Z" fill="#0B4870"/>
<path d="M174.609 48.354C174.609 48.354 173.057 63.9415 176.458 67.2535C178.897 66.9635 182.676 66.885 184.294 66.2815C189.148 64.4713 188.418 61.1019 190.311 58.8044C193.922 54.4211 186.41 43.5225 174.609 48.354Z" fill="#FFE3CA"/>
<path d="M183.689 63.8674L184.198 69.9053L183.152 73.3556C182.681 74.6752 184.366 75.6852 185.307 74.6468L190.447 69.9525L190.058 58.8169L183.689 63.8674Z" fill="#FFE3CA"/>
<path d="M180.102 52.6674C178.923 52.6039 177.765 52.8773 176.607 53.1028C175.449 53.3283 174.16 53.3952 173.178 52.7408C171.832 51.8433 171.575 49.9762 170.577 48.703C169.866 47.7968 168.815 47.2361 167.933 46.4954C167.803 46.3864 167.673 46.2678 167.608 46.1116C167.46 45.7583 167.691 45.3667 167.935 45.0711C168.801 44.0199 169.983 43.2137 171.305 42.8861C172.627 42.5586 174.084 42.7313 175.246 43.4417C176.306 44.0894 177.136 45.1667 178.34 45.4704C180.157 45.9287 181.864 44.4516 183.707 44.1125C184.35 43.9948 185.012 44.0178 185.645 44.1799C186.046 44.2829 186.439 44.4449 186.761 44.706C187.645 45.4229 187.844 46.7359 188.694 47.4933C189.579 48.2822 190.968 48.2912 191.846 49.0884C192.458 49.6445 192.711 50.4836 192.929 51.2813C193.202 52.2789 193.443 53.4185 192.884 54.2887C192.64 54.6681 192.016 58.0419 191.631 58.2769C189.417 59.6285 187.109 56.9452 184.998 55.9002C184.235 55.5222 183.622 54.9086 183.145 54.2028C182.749 53.6167 181.873 52.763 180.102 52.6674Z" fill="#0B4870"/>
<path d="M187.642 54.1398L187.7 59.7826L188.824 59.7261L190.653 53.9882L187.642 54.1398Z" fill="#0B4870"/>
<path d="M189.187 54.8461C191.396 53.1667 192.102 53.7632 191.915 56.2794C191.728 58.7958 188.825 59.7259 188.825 59.7259L189.187 54.8461Z" fill="#FFE3CA"/>
<path d="M179.451 96.8298C181.222 96.7406 182.502 93.5791 182.31 89.7683C182.118 85.9575 180.527 82.9405 178.756 83.0297C176.985 83.1189 175.705 86.2804 175.897 90.0912C176.089 93.902 177.68 96.919 179.451 96.8298Z" fill="#FFBE55"/>
<path d="M133.761 37.9301L128.632 32.556M140.74 37.9301L145.868 32.556M142.967 29.7055L143.304 29.3525M140.74 32.0396L142.379 30.3218M135.555 32.0396L133.916 30.3218" stroke="#FFBE55" stroke-width="2" stroke-miterlimit="10" stroke-linecap="round"/>
<path d="M129.577 24.7998C124.597 24.7998 120.564 28.8361 120.564 33.816C120.564 28.8361 116.527 24.7998 111.547 24.7998C116.527 24.7998 120.564 20.7634 120.564 15.7836C120.564 20.7634 124.597 24.7998 129.577 24.7998ZM149.587 61.6104C147.093 61.6104 145.072 63.632 145.072 66.1262C145.072 63.632 143.051 61.6104 140.557 61.6104C143.051 61.6104 145.072 59.5889 145.072 57.0947C145.072 59.5887 147.093 61.6104 149.587 61.6104Z" fill="#FFBE55"/>
</svg>
