<svg width="250" height="250" viewBox="0 0 250 250" fill="none" xmlns="http://www.w3.org/2000/svg">
<path d="M125 250C194.036 250 250 242.041 250 232.222C250 222.403 194.036 214.444 125 214.444C55.9644 214.444 0 222.403 0 232.222C0 242.041 55.9644 250 125 250Z" fill="#C6BEAC"/>
<path d="M70.5875 111.183C70.5875 111.183 70.6744 111.222 70.8392 111.293C72.5713 112.041 82.9143 116.418 91.6111 118.019C96.4644 116.872 94.3411 112.02 94.3411 112.02C94.3411 112.02 78.3034 102.26 74.4014 97.631C70.56 95.1771 64.5541 107.224 64.5541 107.224L70.5875 111.183Z" fill="#E89C7C"/>
<g style="mix-blend-mode:soft-light" opacity="0.45">
<path d="M91.6102 118.019C82.9126 116.419 72.5688 112.041 70.8385 111.297C70.6712 111.22 70.5874 111.186 70.5874 111.186L64.5503 107.227C64.5503 107.227 70.5595 95.1775 74.4013 97.6318C75.1833 98.5099 76.0419 99.3279 76.9687 100.078C76.3454 102.267 75.9454 106.97 82.0942 110.852C85.815 113.204 90.5962 113.683 94.745 113.495C94.9683 115.026 94.7264 117.283 91.6102 118.019Z" fill="black"/>
</g>
<path d="M133.519 80.4296C124.948 87.4913 127.415 92.1854 111.951 97.2056L111.856 102.075L110.27 101.904L110.356 97.4901C110.356 97.4901 104.031 94.0382 104.376 85.0686C104.706 76.2543 109.903 70.4429 110.227 70.0337C110.234 70.0285 110.238 70.0211 110.239 70.0132C110.513 78.4851 115.568 84.02 114.75 88.4008C114.819 88.3191 114.9 88.2479 114.98 88.1663V88.1559C123.117 79.6466 128.805 81.6681 133.519 80.4296Z" fill="#448E32"/>
<g style="mix-blend-mode:soft-light" opacity="0.3">
<path d="M133.519 80.4297C124.948 87.4913 127.415 92.1855 111.951 97.2056L111.856 102.075L110.27 101.904L110.356 97.4902C110.356 97.4902 104.031 94.0382 104.376 85.0687C104.706 76.2543 109.903 70.443 110.227 70.0338C109.99 70.631 104.936 83.4923 111.501 92.5447C114.201 89.3764 114.852 88.3819 114.98 88.1767C114.756 88.6912 112.923 93.0449 113.035 94.2593C113.156 95.5568 122.599 83.649 133.519 80.4297Z" fill="black"/>
</g>
<path d="M134.456 104.516L128.502 138.807L127.721 143.331C127.414 145.067 126.158 146.316 124.689 146.316H97.545C96.0846 146.316 94.8194 145.067 94.5218 143.331L87.787 104.516C87.3777 102.173 88.8475 99.9664 90.8102 99.9664H131.423C133.395 99.9664 134.856 102.173 134.456 104.516Z" fill="#4F1D0E"/>
<g style="mix-blend-mode:soft-light" opacity="0.45">
<path d="M128.502 138.807L127.721 143.331C127.414 145.067 126.158 146.316 124.689 146.316H97.545C96.0846 146.316 94.8194 145.067 94.5218 143.331L87.787 104.516C87.3777 102.173 88.8475 99.9664 90.8102 99.9664H91.8707C94.7264 109.698 103.74 131.445 128.502 138.807Z" fill="black"/>
</g>
<path d="M131.244 193.244C141.951 202.066 138.868 207.931 158.188 214.203C158.307 220.286 158.307 230.249 158.307 230.249L160.288 230.035L160.181 214.558C160.181 214.558 168.082 210.246 167.652 199.04C167.24 188.028 160.746 180.768 160.342 180.256C160.334 180.25 160.329 180.241 160.327 180.231C159.985 190.815 153.669 197.73 154.692 203.203C154.605 203.101 154.505 203.012 154.404 202.91V202.897C144.239 192.266 137.133 194.791 131.244 193.244L131.244 193.244Z" fill="#448E32"/>
<g style="mix-blend-mode:soft-light" opacity="0.3">
<path d="M131.244 193.244C141.951 202.066 138.868 207.931 158.188 214.203C158.307 220.286 158.307 230.249 158.307 230.249L160.288 230.035L160.181 214.558C160.181 214.558 168.082 210.246 167.652 199.04C167.24 188.028 160.746 180.768 160.342 180.256C160.638 181.003 166.952 197.07 158.75 208.38C155.377 204.422 154.564 203.179 154.404 202.923C154.685 203.565 156.974 209.005 156.834 210.522C156.683 212.143 144.885 197.266 131.244 193.244Z" fill="black"/>
</g>
<path d="M76.327 95.6992C76.6431 97.153 76.5966 98.4015 76.1129 99.3336C75.8485 99.8384 75.4321 100.263 74.913 100.556C72.1874 102.104 69.1085 102.207 69.1085 102.207C69.0526 102.404 68.9782 102.6 68.9131 102.797C68.8573 102.951 68.7921 103.105 68.7363 103.267C68.6434 103.49 68.5504 103.712 68.4573 103.934C68.3829 104.097 68.3084 104.251 68.234 104.413C68.141 104.601 68.048 104.798 67.9458 104.995C67.7689 105.345 67.5828 105.705 67.3782 106.064C67.336 106.155 67.2863 106.244 67.2295 106.329C66.9783 106.782 66.7085 107.244 66.4201 107.714C66.3086 107.885 66.2061 108.065 66.0946 108.236C66.0015 108.381 65.9085 108.526 65.8062 108.68C64.7271 110.365 63.49 112.11 62.2248 113.863C62.0574 114.085 61.8994 114.316 61.7319 114.538C61.4714 114.897 61.2017 115.265 60.9319 115.633C60.4947 116.231 60.0575 116.83 59.6203 117.429C59.4807 117.625 59.3413 117.813 59.2016 118.002C57.1366 117.959 55.0715 117.916 53.0065 117.908C52.5135 117.908 52.0204 117.908 51.5181 117.899C48.456 117.867 45.3978 117.69 42.3556 117.369C41.9834 117.326 41.6113 117.283 41.2393 117.24C34.4581 116.402 27.8349 114.649 21.1095 113.563C20.7468 113.503 20.3839 113.452 20.0212 113.401C20.8211 112.751 21.6119 112.075 22.3932 111.348C22.8119 108.167 23.3049 105.106 23.8536 102.198C23.8908 101.976 23.9374 101.762 23.9746 101.54C24.0861 100.967 24.1977 100.403 24.3094 99.8467C24.4862 99.0001 24.6537 98.1706 24.8397 97.3582C24.9699 96.7511 25.1002 96.1525 25.2396 95.5624C25.2955 95.3401 25.342 95.1177 25.3979 94.8954C25.528 94.3225 25.6676 93.7495 25.8071 93.1937C29.4255 78.5278 33.9092 69.3093 34.886 69.0185C35.8162 68.7534 44.1695 68.5055 49.2298 68.3857C51.4902 68.3259 53.0902 68.2917 53.0902 68.2917L55.8158 55.0796L67.0991 65.6749L65.9178 70.2585C65.6853 71.1992 65.397 72.3365 65.0434 73.7048C65.5928 74.2842 66.1767 74.8352 66.7923 75.3552C67.1922 75.6973 67.6108 76.0393 68.0386 76.3557C68.2991 76.5695 68.5782 76.7748 68.848 76.9629C70.9317 78.4851 73.1827 79.8533 75.192 81.0847C75.3409 81.1702 75.4896 81.2643 75.6293 81.3498C76.7455 82.0425 77.7687 82.6924 78.6245 83.3167C79.6478 84.0606 80.4384 84.7533 80.8756 85.4203C80.457 88.4476 76.578 95.2546 76.3363 95.6821C76.3309 95.6866 76.3276 95.6927 76.327 95.6992Z" fill="#351205"/>
<path d="M75.192 81.0847C73.1434 81.6979 71.0023 82.0095 68.848 82.0083C65.3809 82.0104 61.9708 81.1979 58.9412 79.648C56.5958 78.4508 54.5307 76.8396 52.8641 74.9069C51.1976 72.9743 49.9625 70.7582 49.2297 68.3857C51.4902 68.3259 53.0901 68.2917 53.0901 68.2917L55.8157 55.0796L67.0991 65.6749L65.9178 70.2585C65.6852 71.1992 65.3969 72.3365 65.0433 73.7048C65.5927 74.2842 66.1766 74.8352 66.7923 75.3552C67.1922 75.6973 67.6107 76.0393 68.0386 76.3557C68.2991 76.5695 68.5782 76.7748 68.848 76.9629C70.9316 78.4851 73.1827 79.8533 75.192 81.0847Z" fill="#E89C7C"/>
<path d="M59.3065 112.02L63.4924 116.351C63.4924 116.351 62.1274 126.385 63.8564 133.215C66.6774 144.98 85.7871 168.571 87.7891 170.495C89.7911 172.42 88.3351 172.754 87.7891 173.507C91.2471 177.272 93.5221 178.526 91.9751 179.614C90.4281 180.701 87.3341 182.079 87.4251 183.147C87.5161 184.215 92.7031 185.721 93.0671 187.645C93.431 189.569 88.3351 193.835 84.7862 196.262C81.2372 198.688 42.9602 124.351 42.9602 124.351L59.3065 112.02Z" fill="#D6B785"/>
<g style="mix-blend-mode:soft-light" opacity="0.65">
<path d="M84.7825 196.265C81.2384 198.685 42.9602 124.347 42.9602 124.347L59.3041 112.024L63.49 116.351C63.49 116.351 62.1319 126.382 63.8527 133.215C66.6806 144.982 85.7871 168.575 87.7871 170.499C88.002 170.706 88.2009 170.926 88.3825 171.158C89.4335 172.517 88.2707 172.851 87.7871 173.509C87.7871 173.509 74.5967 156.107 65.9457 145.315C75.0432 160.408 84.6803 175.074 90.6801 180.428C90.587 180.479 90.4848 180.539 90.3824 180.607C82.5035 176.083 78.7361 171.397 78.3827 170.952C78.6432 171.5 82.1966 178.863 87.4895 182.831C87.4375 182.929 87.415 183.038 87.4243 183.147C87.5173 184.216 92.6986 185.721 93.0708 187.645C93.4335 189.569 88.3359 193.836 84.7825 196.265Z" fill="black"/>
</g>
<path d="M99.0706 228.983C91.4243 230.753 83.75 231.839 76.327 232.446C74.1968 232.626 72.0945 232.754 70.0201 232.857C69.3875 232.882 68.7642 232.908 68.1411 232.934C67.6387 232.951 67.1457 232.968 66.6526 232.985C64.8295 233.045 63.0435 233.071 61.2853 233.079C60.5412 233.079 59.7971 233.079 59.0622 233.071C57.6948 233.062 56.3553 233.045 55.0343 233.011C33.9093 232.463 18.5049 228.983 18.5049 228.983C18.5049 228.983 19.5003 225.939 20.8211 221.244C23.6118 211.213 27.8349 193.657 26.756 182.198C23.1746 177.067 19.5096 171.739 16.1609 166.48C15.6864 165.736 15.212 164.983 14.7469 164.239V164.231C14.2818 163.487 13.826 162.752 13.3794 162.016C12.8586 161.152 12.347 160.297 11.8447 159.442C11.4912 158.826 11.1377 158.219 10.7935 157.612C10.7842 157.603 10.7842 157.586 10.7749 157.578C10.3098 156.766 9.86333 155.953 9.43535 155.149C9.14705 154.619 8.85873 154.08 8.58895 153.55C7.34237 151.164 6.24479 148.838 5.34252 146.615C5.24008 146.375 5.14721 146.136 5.05409 145.897C4.85879 145.409 4.6821 144.93 4.5053 144.451C4.24492 143.733 4.00307 143.023 3.78902 142.331C3.69602 142.023 3.61222 141.723 3.52865 141.424C3.47278 141.245 3.42622 141.073 3.37967 140.902C3.32391 140.697 3.27747 140.492 3.2216 140.287C3.09135 139.774 2.97973 139.261 2.88674 138.765C2.83099 138.474 2.77512 138.192 2.73787 137.909C2.68202 137.61 2.64487 137.311 2.60775 137.012C2.54257 136.481 2.496 135.968 2.47738 135.464C2.44153 134.825 2.44775 134.186 2.49601 133.548C2.52394 133.18 2.56119 132.821 2.60775 132.479C2.64487 132.18 2.69133 131.889 2.73787 131.607C2.74719 131.539 2.76581 131.47 2.77512 131.402C2.8403 131.094 2.90536 130.786 2.97973 130.487V130.47C3.05423 130.179 3.13791 129.905 3.2216 129.632C3.24219 129.559 3.26706 129.488 3.2961 129.418C3.37047 129.17 3.46347 128.922 3.55647 128.682C3.65877 128.409 3.77052 128.152 3.88201 127.896C4.3902 126.789 5.03306 125.739 5.79831 124.766C5.96568 124.552 6.13317 124.347 6.30997 124.15C6.49597 123.928 6.69127 123.705 6.89589 123.492C6.94651 123.43 7.00253 123.373 7.06338 123.321C7.32387 123.047 7.59355 122.773 7.87266 122.517C8.17969 122.217 8.49583 121.935 8.83081 121.644C8.84944 121.636 8.85873 121.619 8.87735 121.61C9.20279 121.328 9.53778 121.054 9.88195 120.781C11.7144 119.336 13.7517 117.967 15.8539 116.496C20.6165 117.01 25.3327 118.002 30.021 118.942C31.1559 119.173 32.2907 119.387 33.4255 119.592C37.8999 120.413 42.3928 121.054 46.9322 121.354C48.4391 121.448 49.9554 121.508 51.4716 121.516C53.2111 121.525 54.9414 121.559 56.6715 121.593C56.5227 121.807 56.3832 122.021 56.2436 122.226C55.146 123.868 54.2438 125.407 53.6576 126.758C53.5368 127.032 53.4344 127.288 53.3414 127.545C53.2926 127.668 53.2522 127.794 53.2205 127.921C53.1053 128.265 53.0212 128.617 52.9693 128.973C54.2995 138.123 70.9224 159.759 74.5594 163.889C78.2059 168.011 79.1734 173.475 84.9965 192.998C85.2569 193.862 85.5173 194.717 85.7779 195.564C88.922 205.62 92.6057 214.685 95.3032 220.825C97.5264 225.904 99.0706 228.983 99.0706 228.983Z" fill="#D6B785"/>
<path d="M76.3269 95.6992C76.643 97.1529 76.5966 98.4015 76.1129 99.3336C75.8485 99.8384 75.432 100.263 74.913 100.556C72.1874 102.104 69.1085 102.207 69.1085 102.207C69.0526 102.404 68.9781 102.6 68.913 102.797C68.8573 102.951 68.7921 103.105 68.7362 103.267C68.6434 103.49 68.5504 103.712 68.4572 103.934C68.3829 104.097 68.3084 104.251 68.234 104.413C68.141 104.601 68.0479 104.798 67.9457 104.995C67.7689 105.345 67.5828 105.704 67.3782 106.064C67.336 106.155 67.2862 106.244 67.2294 106.329C66.9782 106.782 66.7085 107.244 66.42 107.714C66.3085 107.885 66.2061 108.065 66.0946 108.236H66.0854C66.0013 108.389 65.9082 108.537 65.8062 108.68C64.7272 110.365 63.49 112.11 62.2248 113.863C62.0668 114.085 61.8994 114.316 61.7412 114.538H61.7319C61.4714 114.897 61.2017 115.265 60.9319 115.633C60.4948 116.231 60.0576 116.83 59.6203 117.429C59.4808 117.625 59.3413 117.813 59.2017 118.001C58.3087 119.233 57.4437 120.439 56.6715 121.593C56.5228 121.807 56.3832 122.021 56.2436 122.226C55.1461 123.868 54.2438 125.407 53.6576 126.758C53.5368 127.032 53.4344 127.288 53.3414 127.545C53.2949 127.673 53.2577 127.801 53.2205 127.921C53.1053 128.265 53.0212 128.617 52.9693 128.973C52.9693 128.973 50.6344 130.051 47.0718 132.248C41.5649 135.643 33.1279 141.723 25.8165 150.685C21.8433 155.529 18.5958 160.841 16.1609 166.48C15.6865 165.736 15.212 164.983 14.7469 164.239V164.231C14.2818 163.487 13.826 162.752 13.3794 162.016C12.8586 161.152 12.347 160.297 11.8447 159.442C11.4912 158.826 11.1377 158.219 10.7935 157.612C10.7842 157.604 10.7842 157.586 10.7749 157.578C10.3098 156.766 9.86333 155.953 9.43535 155.149C9.14705 154.611 8.85873 154.08 8.58895 153.55C7.34237 151.164 6.24479 148.838 5.34252 146.615C5.24008 146.375 5.14721 146.136 5.05409 145.897C4.85879 145.409 4.6821 144.93 4.5053 144.451C4.24492 143.733 4.00307 143.023 3.78902 142.331C3.69602 142.023 3.61222 141.723 3.52865 141.424C3.47278 141.245 3.42622 141.074 3.37967 140.902C3.32391 140.697 3.27748 140.492 3.22161 140.287C3.09136 139.774 2.97973 139.261 2.88674 138.765C2.83099 138.474 2.77512 138.192 2.73787 137.909C2.68202 137.61 2.64487 137.311 2.60775 137.012C2.54257 136.481 2.496 135.968 2.47738 135.464C2.44153 134.825 2.44775 134.186 2.49601 133.548C2.52394 133.181 2.56119 132.821 2.60775 132.479C2.64487 132.18 2.69133 131.889 2.73787 131.607C2.74719 131.539 2.76581 131.47 2.77512 131.402C2.8403 131.094 2.90537 130.786 2.97974 130.487V130.47C3.05424 130.179 3.13792 129.905 3.22161 129.632C3.2422 129.559 3.26706 129.488 3.2961 129.418C3.37047 129.17 3.46347 128.922 3.55647 128.682C3.65878 128.409 3.77052 128.152 3.88201 127.896C4.3902 126.789 5.03306 125.739 5.79831 124.766C5.96568 124.552 6.13317 124.347 6.30997 124.15C6.49597 123.928 6.69127 123.705 6.89589 123.492C6.94651 123.43 7.00253 123.373 7.06338 123.321C7.32387 123.047 7.59355 122.773 7.87266 122.517C8.17969 122.217 8.49583 121.935 8.83081 121.645C8.84944 121.636 8.85873 121.619 8.87735 121.61C9.20279 121.328 9.53779 121.054 9.88196 120.781C11.7144 119.336 13.7517 117.967 15.8539 116.497C17.2306 115.53 18.6353 114.521 20.0213 113.401C20.8211 112.751 21.6119 112.075 22.3932 111.348C22.8119 108.167 23.3049 105.106 23.8536 102.198C23.8909 101.976 23.9374 101.762 23.9747 101.54C24.0862 100.967 24.1978 100.403 24.3094 99.8467C24.4862 99.0001 24.6537 98.1706 24.8397 97.3582C24.9699 96.7511 25.1002 96.1525 25.2396 95.5624C25.2955 95.3401 25.3421 95.1177 25.3979 94.8954C25.528 94.3225 25.6676 93.7495 25.8072 93.1936C25.8072 93.1936 25.9374 93.1509 26.1978 93.0653C26.2859 93.0298 26.3759 92.9984 26.4676 92.9713C26.5607 92.9371 26.6722 92.8944 26.7839 92.8601C26.9047 92.8174 27.0443 92.7661 27.1932 92.7148C29.1559 92.0307 33.0535 90.6453 37.8347 88.7982L40.9138 95.2888L42.5975 98.8547C42.7188 98.8522 42.8399 98.8436 42.9602 98.8291C44.0672 98.7436 47.6019 98.3331 51.6764 96.4603C53.9752 95.408 56.0912 94.0478 57.9553 92.424C58.1692 92.2359 58.3925 92.0392 58.6064 91.8339C57.6203 89.7559 56.8019 88.0371 56.1227 86.6261C55.0995 84.4797 54.4112 83.0259 53.9367 82.0425C55.6298 81.2643 57.3134 80.4605 58.9413 79.648C61.7504 78.2456 64.4109 76.8004 66.7923 75.3552C67.1923 75.6973 67.6108 76.0393 68.0387 76.3557C68.2992 76.5695 68.5782 76.7747 68.848 76.9629C70.9317 78.4851 73.1827 79.8533 75.192 81.0847C75.3409 81.1702 75.4897 81.2643 75.6293 81.3498C76.7456 82.0425 77.7688 82.6924 78.6246 83.3167L73.7782 89.9954C74.3815 90.8782 74.8923 91.8117 75.3037 92.7832C75.3875 92.9799 75.471 93.168 75.5548 93.3561C75.5838 93.4174 75.6086 93.4802 75.6293 93.5442C75.7129 93.741 75.7874 93.9291 75.8526 94.1172C75.899 94.2455 75.9454 94.3738 75.9827 94.4935C76.0386 94.673 76.1037 94.8612 76.1595 95.0579C76.1751 95.1027 76.1875 95.1484 76.1966 95.1947C76.2525 95.3571 76.2897 95.5196 76.3363 95.6821C76.3309 95.6865 76.3276 95.6926 76.3269 95.6992Z" fill="#D6B785"/>
<path d="M76.3225 95.7021C75.7159 94.6829 75.2468 93.7017 74.7548 92.6997C74.2879 91.6909 73.8053 90.6905 73.5022 89.5582C74.4401 90.3447 75.0974 91.3207 75.6064 92.3568C75.855 92.8803 76.0482 93.4247 76.1833 93.9822C76.3288 94.5451 76.3758 95.1256 76.3225 95.7021Z" fill="#003319"/>
<path d="M40.9137 95.2887C35.4169 97.9696 29.7151 100.279 23.8535 102.198C23.8907 101.976 23.9373 101.762 23.9746 101.54C24.0861 100.967 24.1977 100.403 24.3093 99.8466C24.4861 99 24.6536 98.1706 24.8396 97.3582C24.9698 96.751 25.1001 96.1524 25.2395 95.5624C25.2954 95.34 25.3419 95.1177 25.3978 94.8953C25.5279 94.3224 25.6675 93.7495 25.807 93.1936C25.807 93.1936 25.9372 93.1508 26.1977 93.0653C26.2858 93.0297 26.3758 92.9983 26.4675 92.9712C26.5606 92.9371 26.6721 92.8943 26.7838 92.8601C26.9046 92.8173 27.0442 92.766 27.1931 92.7147C29.1558 92.0306 33.0534 90.6453 37.8346 88.7981L40.9137 95.2887Z" fill="#A2421C"/>
<path d="M68.8479 76.9629C66.6247 78.9383 62.3085 82.547 56.1226 86.6261C55.0994 84.4797 54.4111 83.0259 53.9366 82.0425C58.5505 79.9217 63.0341 77.6385 66.7922 75.3552C67.4433 75.911 68.1317 76.4498 68.8479 76.9629Z" fill="#A2421C"/>
<path d="M78.6245 83.3166L73.7781 89.9953L72.0851 86.3352L75.6292 81.3497C76.7455 82.0424 77.7687 82.6923 78.6245 83.3166Z" fill="#A2421C"/>
<path d="M99.0706 228.983C91.4243 230.753 83.75 231.839 76.327 232.446C74.1967 232.626 72.0944 232.754 70.0201 232.857C69.3875 232.882 68.7642 232.908 68.141 232.934C65.8062 233.028 63.5179 233.071 61.2853 233.079C60.5412 233.079 59.7971 233.079 59.0622 233.07C57.6948 233.062 56.3552 233.045 55.0343 233.011C33.9092 232.463 18.5049 228.983 18.5049 228.983C18.5049 228.983 19.5003 225.938 20.8211 221.244C35.6116 224.211 68.4666 229.094 95.3032 220.825C97.5264 225.904 99.0706 228.983 99.0706 228.983Z" fill="#A2421C"/>
<g style="mix-blend-mode:soft-light" opacity="0.65">
<path d="M76.3269 232.446C74.1967 232.626 72.0944 232.754 70.0201 232.857C70.7084 224.57 72.7735 193.374 66.9224 174.262C62.6714 166.882 44.0021 136.353 42.9974 134.711C43.723 136.131 55.4714 159.049 65.3411 174.929C69.555 191.373 68.5503 223.493 68.141 232.934C65.8062 233.028 63.5179 233.071 61.2853 233.079C62.2341 226.135 64.2806 206.142 62.0853 174.262C57.4715 166.711 42.6068 136.798 42.0206 135.643C42.3463 136.567 49.2018 155.979 60.9785 174.818C63.8434 193.203 60.4202 222.8 59.0622 233.071C57.6948 233.062 56.3552 233.045 55.0343 233.011C56.2902 223.211 59.3133 195.906 57.4529 173.817C51.267 162.213 40.923 136.413 40.923 136.413L40.5416 133.215H43.7416C43.7416 133.215 57.1738 157.997 69.834 173.706C76.671 191.886 76.5223 223.561 76.3269 232.446Z" fill="black"/>
</g>
<path d="M56.2436 122.226C54.4948 124.86 53.2204 127.211 52.9693 128.973C52.9693 128.973 27.1559 140.843 16.1608 166.48C14.2447 163.478 12.4214 160.494 10.7749 157.578C23.6211 136.054 47.5369 125.493 56.2436 122.226Z" fill="#A2421C"/>
<g style="mix-blend-mode:soft-light" opacity="0.45">
<path d="M66.6527 232.985C64.8295 233.045 63.0435 233.071 61.2853 233.079C60.5412 233.079 59.7971 233.079 59.0622 233.071C57.6948 233.062 56.3553 233.045 55.0343 233.011C33.9093 232.463 18.5049 228.983 18.5049 228.983C18.5049 228.983 19.5003 225.939 20.8211 221.244C23.6118 211.213 27.8349 193.657 26.756 182.198C23.1746 177.067 19.5096 171.739 16.1609 166.48C15.6864 165.736 15.212 164.983 14.7469 164.239V164.231C14.2818 163.487 13.826 162.752 13.3794 162.016C12.8586 161.152 12.347 160.297 11.8447 159.442C11.4912 158.826 11.1377 158.219 10.7935 157.612C10.7842 157.604 10.7842 157.586 10.7749 157.578C10.3098 156.766 9.86333 155.953 9.43535 155.149C9.14705 154.619 8.85873 154.08 8.58895 153.55C7.34237 151.164 6.24479 148.838 5.34252 146.615C5.24008 146.375 5.14721 146.136 5.05409 145.897C4.85879 145.409 4.6821 144.93 4.5053 144.451C4.24492 143.733 4.00307 143.023 3.78902 142.331C3.69602 142.023 3.61222 141.723 3.52865 141.424C3.47278 141.245 3.42622 141.074 3.37967 140.902C3.32391 140.697 3.27747 140.492 3.2216 140.287C3.09135 139.774 2.97973 139.261 2.88674 138.765C2.83099 138.474 2.77512 138.192 2.73787 137.909C2.68202 137.61 2.64487 137.311 2.60775 137.012C2.54257 136.481 2.496 135.968 2.47738 135.464C2.44153 134.825 2.44775 134.186 2.49601 133.548C2.52394 133.181 2.56119 132.821 2.60775 132.479C2.64487 132.18 2.69133 131.889 2.73787 131.607C2.74719 131.539 2.76581 131.47 2.77512 131.402C2.8403 131.094 2.90536 130.786 2.97973 130.487V130.47C3.05423 130.179 3.13791 129.905 3.2216 129.632C3.24219 129.559 3.26706 129.488 3.2961 129.418C3.37047 129.17 3.46347 128.922 3.55647 128.682C3.65878 128.409 3.77052 128.152 3.88201 127.896C4.3902 126.789 5.03306 125.739 5.79831 124.766C5.96568 124.552 6.13317 124.347 6.30997 124.15C6.49597 123.928 6.69127 123.705 6.89589 123.492C6.94651 123.43 7.00253 123.373 7.06338 123.321C7.32387 123.047 7.59355 122.773 7.87266 122.517C8.17969 122.217 8.49583 121.935 8.83081 121.645C8.84944 121.636 8.85873 121.619 8.87735 121.61C9.20279 121.328 9.53778 121.054 9.88195 120.781C11.7144 119.336 13.7517 117.967 15.8539 116.497C17.2306 115.53 18.6353 114.521 20.0213 113.401C20.8211 112.751 21.6119 112.075 22.3932 111.348C22.8119 108.167 23.3049 105.106 23.8536 102.198C23.8909 101.976 23.9374 101.762 23.9747 101.54C24.0862 100.967 24.1978 100.403 24.3094 99.8467C24.4862 99.0001 24.6537 98.1706 24.8397 97.3582C24.9699 96.7511 25.1002 96.1525 25.2396 95.5624C25.2955 95.3401 25.3421 95.1177 25.3979 94.8954C25.528 94.3225 25.6676 93.7495 25.8072 93.1937C29.4256 78.5278 33.9093 69.3093 34.886 69.0185C35.8162 68.7534 44.1695 68.5055 49.2298 68.3857C51.4903 68.3259 53.0902 68.2917 53.0902 68.2917L55.8158 55.0796L67.0991 65.6749L65.9179 70.2585C62.8854 72.4477 59.0436 74.5856 54.1972 76.3044C50.8691 77.4783 47.4318 78.3713 43.9276 78.9725C52.2996 93.1167 58.6064 91.8339 58.6064 91.8339C58.432 92.0841 58.2327 92.3189 58.0111 92.5352C57.1645 93.4246 55.2669 95.0151 51.6764 96.4603C49.3973 97.3839 46.4299 98.2561 42.5975 98.8548C42.9695 99.2652 43.3323 99.6671 43.7044 100.06C48.0456 104.739 52.7459 109.126 57.7692 113.187C59.0622 114.222 60.1319 115.043 60.9319 115.633C61.9365 116.377 62.4946 116.762 62.4946 116.762L59.6203 117.429C59.6203 117.429 57.6483 116.71 54.867 115.368C51.3042 113.666 46.4113 110.955 42.5975 107.449C46.5509 112.503 51.2113 115.06 53.3043 116.035C49.8995 114.598 39.5371 109.98 34.1604 104.995C38.3464 113.136 48.3834 116.351 48.3834 116.351C45.9792 116.463 43.5894 116.761 41.2393 117.24C38.5502 117.763 35.9304 118.552 33.4255 119.592C29.4349 121.251 25.6025 123.799 23.2677 127.665C20.6444 132.018 22.17 140.86 25.8165 150.685C31.2675 165.411 41.4719 182.335 49.5741 189.595C38.0115 182.54 32.8303 177.272 32.8303 177.272C32.8303 177.272 48.095 217.208 66.6527 232.985Z" fill="black"/>
</g>
<path d="M100.624 136.994C102.029 139.876 91.9731 138.705 90.3637 138.508C88.7638 138.32 87.1173 136.781 81.1733 130.367C70.0759 124.347 53.5739 114.085 50.7647 110.622C47.9555 107.167 42.9602 98.8376 42.9602 98.8376V98.8291C44.6253 98.7008 51.7415 97.8371 57.9553 92.424C58.718 93.8264 60.2157 96.6313 63.0342 102.147C72.141 111.348 81.964 120.507 85.9267 122.183C87.1546 121.721 89.201 119.72 91.4336 120.216C94.0195 120.926 95.0241 121.097 97.7125 120.216C100.391 119.336 101.117 119.301 100.391 121.602C99.6658 123.902 95.7962 124.903 91.7497 124.774C91.9265 126.869 92.5684 130.846 92.5684 130.846C92.5684 130.846 95.573 133.266 97.3403 133.642C99.1172 134.018 100.298 134.147 101.712 134.566C103.126 134.985 103.443 135.566 100.624 136.994Z" fill="#E89C7C"/>
<g style="mix-blend-mode:soft-light" opacity="0.45">
<path d="M100.624 136.994C100.847 137.448 100.782 137.798 100.512 138.063C98.5031 137.602 95.8335 136.952 93.852 136.336C90.2801 135.224 90.3359 137.448 93.9172 138.679C94.1032 138.739 94.2986 138.807 94.5032 138.867C92.6428 138.782 90.9406 138.576 90.3637 138.508C88.7638 138.32 87.1173 136.781 81.1733 130.367C70.0759 124.347 53.5739 114.085 50.7647 110.622C47.9555 107.167 42.9602 98.8376 42.9602 98.8376V98.8291C44.6253 98.7008 51.7415 97.8371 57.9553 92.424C58.1134 92.7062 58.2994 93.0568 58.5133 93.4673C57.118 95.3828 54.0204 100.24 54.9693 104.439C56.1785 109.792 71.0247 120.747 85.9267 122.183C87.1546 121.721 89.201 119.72 91.4336 120.216C94.0195 120.926 95.0241 121.097 97.7125 120.216C99.9636 119.472 100.838 119.336 100.615 120.678C96.959 121.063 90.6242 122.123 91.7497 124.774C91.9265 126.869 92.5684 130.846 92.5684 130.846C92.5684 130.846 92.8847 134.275 96.5869 135.053C98.4009 135.438 100.698 135.626 102.568 135.729C102.28 136.054 101.666 136.473 100.624 136.994Z" fill="black"/>
</g>
<path d="M89.8517 132.293L92.2704 134.064C93.0755 134.638 93.8846 135.228 94.7421 135.651C95.5935 136.046 96.6022 136.255 97.5914 136.457C98.5899 136.648 99.602 136.822 100.624 136.994C99.5851 137.069 98.5409 137.052 97.5058 136.943C96.4689 136.83 95.4267 136.657 94.4245 136.209C93.5098 135.719 92.6681 135.122 91.9205 134.434C91.1681 133.773 90.4762 133.057 89.8517 132.293Z" fill="#CC7A5E"/>
<path d="M79.2381 129.734C79.1556 129.734 79.0746 129.714 79.0034 129.676C78.9322 129.637 78.8733 129.582 78.8328 129.516C78.7924 129.45 78.7718 129.375 78.7731 129.3C78.7745 129.224 78.7978 129.15 78.8406 129.085C80.5872 126.428 82.505 123.87 84.5837 121.423C84.6213 121.379 84.6681 121.342 84.7213 121.315C84.7744 121.287 84.833 121.269 84.8936 121.263C84.9542 121.256 85.0157 121.26 85.0745 121.275C85.1334 121.29 85.1884 121.316 85.2365 121.35C85.2846 121.385 85.3247 121.428 85.3548 121.477C85.3848 121.526 85.404 121.58 85.4114 121.635C85.4188 121.691 85.4141 121.748 85.3977 121.802C85.3813 121.856 85.3535 121.906 85.3159 121.951C83.2601 124.37 81.3636 126.901 79.6363 129.528C79.5948 129.591 79.5364 129.643 79.4666 129.679C79.3968 129.715 79.3181 129.734 79.2381 129.734Z" fill="#006837"/>
<path d="M78.2521 129.187C78.1698 129.187 78.089 129.167 78.0179 129.129C77.9468 129.091 77.8879 129.036 77.8474 128.97C77.8069 128.904 77.7861 128.83 77.7871 128.754C77.7882 128.679 77.8111 128.605 77.8536 128.54C79.5994 125.861 81.524 123.285 83.6162 120.825C83.6922 120.736 83.8037 120.678 83.9262 120.664C84.0487 120.651 84.1721 120.682 84.2693 120.752C84.3664 120.822 84.4294 120.924 84.4444 121.037C84.4594 121.15 84.4251 121.263 84.349 121.352C82.2806 123.784 80.3778 126.331 78.6514 128.979C78.6101 129.043 78.5516 129.095 78.4816 129.131C78.4116 129.168 78.3325 129.187 78.2521 129.187Z" fill="#C1272D"/>
<path d="M77.3124 128.648C77.2282 128.648 77.1457 128.627 77.0738 128.587C77.0213 128.558 76.9756 128.52 76.9392 128.475C76.9027 128.43 76.8763 128.379 76.8615 128.324C76.8466 128.27 76.8436 128.213 76.8526 128.158C76.8616 128.102 76.8824 128.049 76.9138 128.001C78.6736 125.296 80.6173 122.697 82.7335 120.217C82.7712 120.173 82.818 120.136 82.8712 120.109C82.9245 120.081 82.9831 120.063 83.0438 120.057C83.1045 120.05 83.166 120.054 83.2248 120.069C83.2837 120.085 83.3387 120.11 83.3867 120.145C83.4348 120.18 83.4749 120.223 83.5048 120.272C83.5347 120.321 83.5538 120.375 83.561 120.431C83.5682 120.486 83.5633 120.543 83.5467 120.597C83.5301 120.651 83.502 120.702 83.4642 120.746C81.3727 123.197 79.4514 125.767 77.7117 128.44C77.6704 128.504 77.612 128.556 77.542 128.593C77.472 128.629 77.3928 128.648 77.3124 128.648Z" fill="#006837"/>
<path d="M76.3263 128.092C76.2442 128.092 76.1635 128.072 76.0925 128.034C76.0216 127.996 75.9628 127.942 75.9222 127.876C75.8817 127.81 75.8607 127.736 75.8616 127.66C75.8624 127.585 75.885 127.511 75.9271 127.446C77.7095 124.701 79.6814 122.063 81.8308 119.55C81.907 119.461 82.0187 119.403 82.1412 119.39C82.2636 119.376 82.3869 119.408 82.4839 119.478C82.5809 119.548 82.6437 119.651 82.6584 119.763C82.6731 119.876 82.6385 119.989 82.5623 120.079C80.4373 122.563 78.488 125.17 76.7264 127.884C76.685 127.948 76.6264 128 76.5563 128.037C76.4862 128.073 76.4069 128.092 76.3263 128.092Z" fill="#C1272D"/>
<path d="M75.3776 127.553C75.2953 127.553 75.2145 127.533 75.1434 127.495C75.0723 127.457 75.0134 127.403 74.9729 127.337C74.9323 127.271 74.9116 127.196 74.9126 127.121C74.9137 127.045 74.9366 126.971 74.979 126.906C76.7903 124.12 78.7932 121.443 80.9756 118.891C81.0134 118.847 81.0603 118.81 81.1136 118.783C81.1669 118.755 81.2256 118.737 81.2863 118.731C81.347 118.724 81.4085 118.729 81.4674 118.744C81.5262 118.759 81.5812 118.785 81.6291 118.82C81.6771 118.855 81.7172 118.898 81.747 118.947C81.7768 118.996 81.7958 119.05 81.8029 119.106C81.81 119.162 81.8051 119.218 81.7884 119.272C81.7717 119.326 81.7435 119.377 81.7056 119.421C79.5481 121.944 77.5679 124.591 75.7769 127.346C75.7357 127.409 75.6772 127.462 75.6072 127.498C75.5372 127.535 75.4581 127.554 75.3776 127.553Z" fill="#006837"/>
<path d="M74.401 126.981C74.3188 126.981 74.2379 126.961 74.1668 126.923C74.0957 126.884 74.0369 126.83 73.9963 126.764C73.9558 126.698 73.935 126.624 73.9361 126.548C73.9372 126.472 73.9601 126.398 74.0025 126.333C75.842 123.5 77.8793 120.78 80.1016 118.189C80.1783 118.101 80.2901 118.044 80.4125 118.031C80.5349 118.018 80.6579 118.05 80.7545 118.12C80.8511 118.191 80.9134 118.293 80.9277 118.406C80.942 118.518 80.9072 118.632 80.8308 118.72C78.6334 121.282 76.6191 123.972 74.8003 126.773C74.7591 126.836 74.7006 126.889 74.6306 126.925C74.5606 126.962 74.4815 126.981 74.401 126.981Z" fill="#C1272D"/>
<path d="M73.4708 126.442C73.3886 126.442 73.3079 126.422 73.2369 126.384C73.1658 126.346 73.107 126.291 73.0664 126.226C73.0258 126.16 73.0049 126.086 73.0058 126.01C73.0067 125.935 73.0293 125.861 73.0715 125.796C74.9359 122.908 77.008 120.139 79.2742 117.505C79.3121 117.461 79.3591 117.424 79.4124 117.397C79.4658 117.37 79.5244 117.353 79.5851 117.346C79.6457 117.34 79.7072 117.344 79.7659 117.36C79.8246 117.375 79.8794 117.401 79.9273 117.436C79.9751 117.471 80.015 117.514 80.0447 117.563C80.0744 117.612 80.0933 117.666 80.1003 117.722C80.1073 117.777 80.1023 117.834 80.0855 117.888C80.0688 117.942 80.0406 117.992 80.0027 118.036C77.763 120.64 75.7145 123.378 73.8708 126.233C73.8296 126.296 73.7711 126.349 73.7009 126.386C73.6308 126.423 73.5515 126.442 73.4708 126.442Z" fill="#006837"/>
<path d="M72.4941 125.86C72.4104 125.86 72.3283 125.839 72.2566 125.8C72.2041 125.771 72.1582 125.733 72.1217 125.688C72.0851 125.643 72.0586 125.592 72.0436 125.537C72.0285 125.483 72.0253 125.426 72.0341 125.371C72.0429 125.315 72.0636 125.262 72.0949 125.214C73.995 122.277 76.1078 119.462 78.4188 116.786C78.4569 116.742 78.5039 116.706 78.5573 116.678C78.6108 116.651 78.6695 116.634 78.7302 116.628C78.7908 116.621 78.8523 116.626 78.911 116.641C78.9697 116.657 79.0245 116.683 79.0723 116.718C79.1201 116.753 79.1599 116.796 79.1895 116.845C79.2191 116.894 79.2379 116.948 79.2448 117.004C79.2517 117.06 79.2466 117.116 79.2298 117.17C79.2129 117.224 79.1847 117.275 79.1467 117.319C76.8614 119.964 74.7725 122.748 72.8941 125.652C72.8528 125.715 72.7943 125.768 72.7241 125.805C72.654 125.841 72.5747 125.86 72.4941 125.86Z" fill="#C1272D"/>
<path d="M71.5638 125.313C71.4802 125.313 71.398 125.292 71.3263 125.253C71.2203 125.195 71.1437 125.1 71.1134 124.991C71.0831 124.881 71.1015 124.764 71.1645 124.667C73.0976 121.676 75.2477 118.809 77.6001 116.085C77.6381 116.041 77.6852 116.004 77.7386 115.977C77.792 115.95 77.8507 115.932 77.9114 115.926C77.9721 115.92 78.0335 115.924 78.0923 115.94C78.151 115.955 78.2058 115.981 78.2536 116.016C78.3014 116.051 78.3412 116.095 78.3708 116.144C78.4004 116.193 78.4192 116.247 78.4261 116.303C78.433 116.358 78.4279 116.415 78.411 116.469C78.3942 116.523 78.3659 116.573 78.3279 116.617C76.0017 119.312 73.8755 122.147 71.9639 125.105C71.9226 125.168 71.864 125.221 71.7938 125.258C71.7237 125.294 71.6444 125.313 71.5638 125.313Z" fill="#006837"/>
<path d="M70.5872 124.74C70.5051 124.74 70.4243 124.72 70.3533 124.683C70.2823 124.645 70.2234 124.59 70.1828 124.524C70.1422 124.459 70.1213 124.384 70.1222 124.309C70.1231 124.233 70.1458 124.159 70.1879 124.094C72.1536 121.045 74.3478 118.126 76.7545 115.356C76.8317 115.268 76.9439 115.211 77.0665 115.199C77.1892 115.187 77.3121 115.219 77.4083 115.29C77.5046 115.361 77.5662 115.465 77.5797 115.577C77.5931 115.69 77.5574 115.803 77.4802 115.891C75.1007 118.63 72.9311 121.516 70.9872 124.531C70.9461 124.595 70.8875 124.648 70.8174 124.685C70.7472 124.721 70.6679 124.74 70.5872 124.74Z" fill="#C1272D"/>
<path d="M69.6667 124.18C69.6058 124.181 69.5455 124.17 69.4891 124.149C69.4327 124.128 69.3814 124.097 69.3382 124.057C69.295 124.018 69.2607 123.971 69.2372 123.92C69.2138 123.868 69.2017 123.813 69.2017 123.757C69.2016 123.677 69.224 123.599 69.2666 123.53C71.2668 120.425 73.5019 117.454 75.9553 114.638C75.9935 114.595 76.0407 114.558 76.0942 114.531C76.1477 114.504 76.2065 114.487 76.2672 114.481C76.3279 114.475 76.3892 114.48 76.4478 114.496C76.5064 114.511 76.5611 114.537 76.6087 114.573C76.6563 114.608 76.6959 114.651 76.7253 114.7C76.7546 114.75 76.7731 114.804 76.7798 114.859C76.7864 114.915 76.781 114.972 76.7639 115.025C76.7469 115.079 76.7184 115.13 76.6802 115.173C74.2591 117.953 72.0532 120.885 70.0786 123.948C70.0396 124.017 69.9806 124.076 69.9079 124.117C69.8353 124.158 69.7519 124.18 69.6667 124.18Z" fill="#006837"/>
<path d="M68.6897 123.59C68.6289 123.591 68.5686 123.58 68.5122 123.559C68.4558 123.538 68.4045 123.507 68.3613 123.467C68.3181 123.428 68.2837 123.381 68.2603 123.329C68.2369 123.278 68.2248 123.222 68.2247 123.167C68.2247 123.087 68.2471 123.009 68.2897 122.94C70.3307 119.78 72.6126 116.757 75.1184 113.894C75.1568 113.85 75.2041 113.813 75.2576 113.787C75.3112 113.76 75.3701 113.743 75.4308 113.737C75.4915 113.731 75.5529 113.736 75.6115 113.752C75.6701 113.767 75.7247 113.794 75.7723 113.829C75.8198 113.864 75.8593 113.908 75.8886 113.957C75.9179 114.006 75.9363 114.06 75.9429 114.116C75.9494 114.172 75.9439 114.228 75.9267 114.282C75.9095 114.336 75.881 114.386 75.8427 114.43C73.3694 117.256 71.1167 120.239 69.1013 123.358C69.0624 123.427 69.0035 123.486 68.9309 123.527C68.8583 123.568 68.7749 123.59 68.6897 123.59Z" fill="#C1272D"/>
<path d="M67.7685 123.03C67.6863 123.03 67.6057 123.01 67.5347 122.972C67.4637 122.934 67.4049 122.879 67.3643 122.814C67.3237 122.748 67.3027 122.674 67.3035 122.598C67.3043 122.523 67.3268 122.449 67.3688 122.384C69.4445 119.161 71.7703 116.081 74.3282 113.166C74.3666 113.122 74.4139 113.086 74.4676 113.059C74.5213 113.032 74.5802 113.015 74.641 113.009C74.7017 113.003 74.7632 113.008 74.8218 113.024C74.8805 113.04 74.9351 113.067 74.9826 113.102C75.0301 113.137 75.0696 113.181 75.0987 113.23C75.1279 113.28 75.1462 113.334 75.1525 113.39C75.1589 113.446 75.1532 113.502 75.1358 113.556C75.1183 113.61 75.0895 113.66 75.051 113.704C72.5216 116.587 70.2216 119.634 68.1688 122.821C68.1277 122.885 68.069 122.937 67.9988 122.974C67.9286 123.011 67.8492 123.03 67.7685 123.03Z" fill="#006837"/>
<path d="M52.9693 80.0072C53.4911 80.9719 53.9977 81.9423 54.5016 82.9141L56.0118 85.8299L58.9643 91.6903L59.0739 91.9079L58.8883 92.0824C56.744 94.1095 54.2323 95.7781 51.4657 97.0136C50.0855 97.6326 48.645 98.131 47.1633 98.5022C45.6732 98.892 44.143 99.138 42.5975 99.2361L42.329 99.2518L42.2168 99.0065C41.6567 97.7828 41.0719 96.569 40.5322 95.3372L38.8826 91.6536C37.7735 89.2016 36.7173 86.7282 35.6766 84.2487C36.945 86.637 38.198 89.0314 39.398 91.4472L41.2122 95.0652C41.8232 96.2687 42.3879 97.4909 42.978 98.7028L42.5975 98.4733C44.0627 98.3545 45.5112 98.0999 46.9207 97.7133C48.3426 97.3247 49.731 96.8395 51.0745 96.2615C53.7665 95.0991 56.2193 93.5171 58.3243 91.5855L58.2483 91.9774L55.5611 86.0123L54.2514 83.0153C53.8141 82.0167 53.3868 81.014 52.9693 80.0072Z" fill="black"/>
<path d="M45.5672 56.8658C44.0352 57.5782 42.6753 57.6319 41.5055 57.2601C37.2672 55.9068 35.524 48.9212 37.1902 47.094C37.276 47.0019 37.3639 46.9155 37.4509 46.8343C39.6017 44.9197 42.9933 46.734 42.9933 46.734C42.9933 46.734 52.644 53.5727 45.5672 56.8658Z" fill="#E89C7C"/>
<g style="mix-blend-mode:soft-light" opacity="0.45">
<path d="M45.5673 56.8658C44.0353 57.5782 42.6754 57.6319 41.5056 57.2601C43.1958 57.1688 44.008 56.2494 42.5588 55.8234C40.5269 55.2239 36.8209 51.6661 38.0536 50.237C39.2549 48.8381 41.5093 51.055 41.6115 51.1557C40.1745 47.7869 38.2226 47.0113 37.4509 46.8343C39.6018 44.9197 42.9934 46.734 42.9934 46.734C42.9934 46.734 52.644 53.5727 45.5673 56.8658Z" fill="black"/>
</g>
<path d="M44.3789 54.7815C43.2664 53.776 42.4491 52.7441 41.5429 51.8335C41.1223 51.3783 40.6521 50.9638 40.1399 50.5964C39.5941 50.2075 38.9669 49.9265 38.2975 49.7708C38.9731 49.3803 39.8974 49.3795 40.6784 49.6412C41.4426 49.9064 42.1209 50.3461 42.6493 50.9188C43.1662 51.4513 43.5831 52.0592 43.883 52.7175C44.1938 53.369 44.3623 54.0702 44.3789 54.7815Z" fill="#CC7A5E"/>
<path d="M80.5572 59.2896C81.774 60.4031 83.049 60.8412 84.2865 60.8207C88.7723 60.7404 92.7828 54.5944 91.814 52.3827C91.7633 52.2707 91.7089 52.1635 91.6535 52.0616C90.2533 49.6287 86.4173 50.3884 86.4173 50.3884C86.4173 50.3884 74.9375 54.1439 80.5572 59.2896Z" fill="#E89C7C"/>
<g style="mix-blend-mode:soft-light" opacity="0.45">
<path d="M80.5572 59.2896C81.774 60.4031 83.049 60.8412 84.2865 60.8207C82.7101 60.2527 82.2475 59.1474 83.769 59.1549C85.9029 59.1632 90.6252 56.8353 89.9344 55.1254C89.2633 53.4533 86.373 54.9195 86.2419 54.9862C88.743 52.192 90.8602 52.0102 91.6535 52.0616C90.2533 49.6287 86.4173 50.3884 86.4173 50.3884C86.4173 50.3884 74.9375 54.1439 80.5572 59.2896Z" fill="black"/>
</g>
<path d="M82.3894 57.646C82.6447 56.9744 83.0411 56.3556 83.5561 55.8247C84.063 55.284 84.6642 54.8247 85.335 54.4656C86.0304 54.0714 86.8234 53.8464 87.6394 53.8117C88.4701 53.7853 89.3487 54.0491 89.8596 54.6128C89.1707 54.5702 88.4796 54.6589 87.8297 54.8733C87.2189 55.0768 86.6322 55.3371 86.0789 55.6502C84.9106 56.2581 83.7859 57.0067 82.3894 57.646Z" fill="#CC7A5E"/>
<path d="M95.8448 38.0043C95.8668 38.5104 94.3324 46.1306 87.0036 51.1958C79.6749 56.261 90.8889 33.7614 90.8889 33.7614L95.8448 38.0043Z" fill="#231C2D"/>
<path d="M43.8463 48.8208L46.165 57.1025C46.165 57.1025 83.4539 32.4755 92.8916 37.3711C93.2984 37.5833 93.6748 37.7858 94.0227 37.984C94.0469 37.9956 94.0679 38.0094 94.0922 38.021C101.71 42.3587 95.3902 43.3943 92.995 48.8025C90.4849 54.4703 94.977 56.0939 98.1643 57.8408C101.349 59.5874 102.157 61.3277 102.336 62.1826C102.518 63.0378 101.185 63.8624 100.277 62.9388C99.3722 62.0129 98.5426 61.8168 98.5426 61.8168C96.074 61.3815 96.3267 63.7193 96.3267 63.7193C96.9784 61.854 98.881 63.1856 98.881 63.1856C98.881 63.1856 101.338 67.0144 103.658 64.0355C103.912 63.7154 104.092 63.3511 104.187 62.9649V62.9623C104.861 60.1777 100.722 56.9617 98.0958 55.3797C95.1236 53.5864 95.7262 49.1502 98.1364 47.5415C100.547 45.9302 105.884 43.5417 105.615 40.3353C105.348 37.1292 99.1426 34.1105 99.1426 34.1105C101.229 25.4229 95.7656 18.9994 89.9051 14.792C84.2628 10.7398 78.2522 8.73644 78.2522 8.73644C78.2522 8.73644 50.1955 0.166631 37.8921 22.0058C25.5892 43.8424 43.8458 48.8208 43.8458 48.8208H43.8463Z" fill="#231C2D"/>
<path d="M32.5383 20.5944C33.7508 24.6384 37.3792 27.7504 43.9301 28.0439C62.3351 28.8683 72.713 9.10811 72.713 9.10811C72.713 9.10811 71.5931 7.7379 69.4792 6.05904C65.3459 2.77953 57.4048 -1.67779 46.5751 0.64395C36.0357 2.90615 30.3419 13.2771 32.5383 20.5944Z" fill="#231C2D"/>
<path d="M45.8229 48.3047L46.165 57.1025C56.3343 66.6317 70.2537 70.2719 70.2537 70.2719C78.9522 67.4192 84.0232 62.1252 84.0232 62.1252L86.3141 55.7336L87.5261 52.3463L92.1698 39.3898L92.8917 37.3712C87.1192 28.9877 80.9234 23.0553 80.9234 23.0553C59.3421 29.5606 45.8229 48.3047 45.8229 48.3047Z" fill="#E89C7C"/>
<g style="mix-blend-mode:soft-light" opacity="0.45">
<path d="M87.2167 47.3287C87.9131 45.0171 87.2651 42.8345 85.7692 42.4536C84.2734 42.0728 82.4963 43.638 81.7999 45.9496C81.1035 48.2612 81.7515 50.4439 83.2474 50.8247C84.7432 51.2055 86.5203 49.6404 87.2167 47.3287Z" fill="black"/>
</g>
<path d="M85.9656 48.1513C86.4262 46.6224 85.9976 45.1789 85.0083 44.927C84.019 44.6752 82.8437 45.7103 82.3831 47.2392C81.9226 48.768 82.3512 50.2115 83.3404 50.4634C84.3297 50.7152 85.5051 49.6801 85.9656 48.1513Z" fill="#1B1723"/>
<path d="M84.7115 46.7782C84.5604 47.2562 84.687 47.716 84.9943 47.8053C85.3016 47.8946 85.6732 47.5795 85.8243 47.1015C85.9755 46.6235 85.8489 46.1636 85.5416 46.0743C85.2343 45.9851 84.8626 46.3002 84.7115 46.7782Z" fill="white"/>
<path d="M83.9814 47.7887C83.9049 48.0308 83.969 48.2636 84.1246 48.3088C84.2802 48.354 84.4684 48.1945 84.5449 47.9524C84.6214 47.7104 84.5573 47.4775 84.4017 47.4323C84.2461 47.3871 84.0579 47.5467 83.9814 47.7887Z" fill="white"/>
<g style="mix-blend-mode:soft-light" opacity="0.45">
<path d="M71.4234 43.503C71.7034 40.3756 70.287 37.716 68.2598 37.5627C66.2327 37.4093 64.3624 39.8202 64.0824 42.9475C63.8024 46.0749 65.2188 48.7344 67.2459 48.8878C69.2731 49.0412 71.1434 46.6303 71.4234 43.503Z" fill="black"/>
</g>
<path d="M70.084 44.8445C70.2691 42.7762 69.3324 41.0173 67.9917 40.9159C66.6511 40.8144 65.4141 42.4089 65.229 44.4772C65.0438 46.5455 65.9805 48.3044 67.3212 48.4058C68.6618 48.5073 69.8988 46.9128 70.084 44.8445Z" fill="#1B1723"/>
<path d="M68.0573 43.3317C68.0138 43.9815 68.321 44.5159 68.7435 44.5253C69.166 44.5347 69.5438 44.0155 69.5873 43.3657C69.6309 42.7159 69.3237 42.1815 68.9012 42.1721C68.4787 42.1627 68.1009 42.6819 68.0573 43.3317Z" fill="white"/>
<path d="M67.4382 44.8425C67.4162 45.1715 67.5717 45.4421 67.7857 45.4468C67.9996 45.4516 68.1909 45.1887 68.213 44.8597C68.235 44.5307 68.0795 44.2601 67.8655 44.2553C67.6516 44.2506 67.4603 44.5134 67.4382 44.8425Z" fill="white"/>
<path d="M83.7456 36.575C82.7391 37.9103 83.0904 38.7638 83.0904 38.7638C84.1864 39.0609 85.2528 39.4439 86.2777 39.9085C86.3643 39.9476 86.4494 39.9883 86.5342 40.026C86.5942 40.0565 86.6538 40.0839 86.7119 40.113C87.4591 40.4779 88.1697 40.9027 88.8355 41.3825C88.9604 41.473 89.0749 41.5614 89.1841 41.6487C89.3008 41.7416 89.4103 41.832 89.509 41.9171C89.8983 42.2341 90.2437 42.5938 90.5376 42.9882C90.5306 42.4504 90.4566 41.9152 90.3171 41.3929C90.2721 41.2366 90.224 41.0836 90.1681 40.9361C90.1143 40.7932 90.0575 40.6536 89.9946 40.521C89.6733 39.8351 89.2075 39.2144 88.6241 38.6948C88.5456 38.6219 88.4642 38.5525 88.383 38.4861C88.3 38.4184 88.2173 38.3538 88.1332 38.2909C86.179 36.8368 83.7456 36.575 83.7456 36.575Z" fill="#231C2D"/>
<path d="M90.1681 40.9362C89.8111 41.1378 89.4809 41.3769 89.1841 41.6487C89.3008 41.7416 89.4103 41.832 89.509 41.9171C89.7576 41.7168 90.0285 41.5411 90.3171 41.393C90.2721 41.2366 90.224 41.0836 90.1681 40.9362Z" fill="#322A3F"/>
<path d="M88.6241 38.6948C87.7989 39.0064 87.1357 39.6302 86.7119 40.1131C87.4591 40.4779 88.1697 40.9027 88.8355 41.3826C89.1827 41.0535 89.5718 40.7642 89.9946 40.521C89.6733 39.8351 89.2075 39.2144 88.6241 38.6948Z" fill="#322A3F"/>
<path d="M86.2776 39.9085C86.3642 39.9476 86.4494 39.9883 86.5341 40.0259C87.0367 39.4079 87.6645 38.8851 88.3829 38.4861C88.2999 38.4184 88.2173 38.3538 88.1331 38.2909C87.4056 38.7136 86.7753 39.2631 86.2776 39.9085Z" fill="#322A3F"/>
<path d="M73.4893 32.6777C73.8775 34.6118 73.028 35.3931 73.028 35.3931C71.6575 35.2198 70.2734 35.1548 68.8908 35.199C68.7741 35.2024 68.6581 35.2085 68.5442 35.2112C68.4615 35.2175 68.3808 35.2205 68.3009 35.2261C67.2789 35.2871 66.2647 35.4309 65.2702 35.6561C65.0833 35.6988 64.9092 35.744 64.7414 35.7904C64.5624 35.8395 64.3926 35.8892 64.2376 35.938C63.6365 36.1098 63.0605 36.3489 62.5228 36.6498C62.8215 36.0595 63.1928 35.5026 63.6294 34.99C63.7636 34.838 63.8995 34.6911 64.041 34.554C64.1777 34.4208 64.316 34.2927 64.4572 34.1751C65.1829 33.565 66.0328 33.093 66.9579 32.7863C67.084 32.7418 67.2115 32.7024 67.337 32.6663C67.4652 32.6295 67.5914 32.596 67.7183 32.5651C70.6619 31.8538 73.4893 32.6777 73.4893 32.6777Z" fill="#231C2D"/>
<path d="M64.041 34.554C64.3259 34.9397 64.561 35.3546 64.7414 35.7904C64.5624 35.8395 64.3926 35.8892 64.2376 35.938C64.0716 35.6033 63.8678 35.2855 63.6294 34.99C63.7636 34.8379 63.8995 34.6911 64.041 34.554Z" fill="#322A3F"/>
<path d="M66.958 32.7864C67.7001 33.5076 68.0946 34.4994 68.301 35.2261C67.279 35.2871 66.2648 35.431 65.2703 35.6561C65.0653 35.1341 64.7923 34.6369 64.4573 34.1752C65.183 33.5651 66.0329 33.0931 66.958 32.7864Z" fill="#322A3F"/>
<path d="M68.8909 35.1991C68.7741 35.2025 68.6582 35.2086 68.5442 35.2113C68.324 34.2994 67.9141 33.4352 67.337 32.6664C67.4653 32.6296 67.5915 32.5961 67.7184 32.5652C68.2925 33.3643 68.6909 34.2591 68.8909 35.1991Z" fill="#322A3F"/>
<path d="M79.065 35.1285C78.9457 35.8192 79.3669 36.4547 80.0057 36.5479C80.6444 36.6411 81.259 36.1568 81.3782 35.466C81.4975 34.7752 81.0763 34.1397 80.4376 34.0465C79.7988 33.9533 79.1843 34.4377 79.065 35.1285Z" fill="#BF3636"/>
<path d="M65.553 53.402C65.3196 53.6913 65.0623 53.9635 64.7834 54.2164C64.668 54.3048 64.5702 54.3978 64.438 54.5024C64.3022 54.608 64.1695 54.7401 63.9429 54.9145C63.8582 54.8183 63.7969 54.7065 63.7631 54.5867C63.7294 54.4669 63.7239 54.3418 63.7472 54.2199C63.7867 53.9732 63.9154 53.7459 64.1124 53.5746C64.3023 53.4095 64.5414 53.3004 64.7992 53.2612C65.0608 53.2161 65.3313 53.2666 65.553 53.402Z" fill="#CC7A5E"/>
<path d="M58.9294 50.8608C58.8114 51.987 61.0213 52.505 63.8497 52.7556C66.678 53.0061 69.0539 52.8943 69.172 51.7682C69.29 50.642 67.0928 49.5259 64.2644 49.2754C61.436 49.0249 59.0475 49.7347 58.9294 50.8608Z" fill="#E5817C"/>
<path d="M81.4673 53.8491C81.3535 54.9642 83.5216 55.4843 86.314 55.7336L87.5261 52.3464C87.2899 52.3119 87.0495 52.2849 86.8025 52.2622C83.975 52.0132 81.5862 52.7213 81.4673 53.8491Z" fill="#E5817C"/>
<path d="M40.8712 56.3522C40.8134 56.6869 40.8649 57.0298 41.0191 57.3376C41.1733 57.6454 41.4233 57.9042 41.7375 58.0813C42.0518 58.2585 42.4161 58.346 42.7844 58.3328C43.1527 58.3196 43.5085 58.2063 43.8068 58.0072C44.1051 57.8081 44.3325 57.5322 44.4601 57.2143C44.5878 56.8965 44.6101 56.5509 44.5242 56.2214C44.4383 55.8919 44.248 55.5932 43.9774 55.363C43.7068 55.1329 43.3681 54.9818 43.004 54.9287C42.7623 54.8934 42.5154 54.9022 42.2774 54.9547C42.0394 55.0071 41.8149 55.1022 41.6169 55.2344C41.4188 55.3665 41.2511 55.5333 41.1231 55.7251C40.9952 55.9169 40.9096 56.13 40.8712 56.3522Z" fill="#C97D20"/>
<path d="M41.0449 56.3775C40.9926 56.6806 41.0392 56.9911 41.1788 57.2699C41.3185 57.5486 41.5449 57.783 41.8295 57.9434C42.114 58.1038 42.4439 58.1831 42.7775 58.1711C43.111 58.1592 43.4332 58.0566 43.7033 57.8763C43.9735 57.696 44.1793 57.4461 44.295 57.1582C44.4106 56.8704 44.4308 56.5575 44.353 56.2591C44.2752 55.9606 44.1029 55.6902 43.8578 55.4818C43.6128 55.2734 43.306 55.1365 42.9763 55.0884C42.7574 55.0565 42.5339 55.0645 42.3183 55.112C42.1028 55.1595 41.8996 55.2455 41.7202 55.3652C41.5409 55.4849 41.3889 55.6359 41.273 55.8096C41.1572 55.9833 41.0797 56.1763 41.0449 56.3775Z" fill="#E29A3B"/>
<path d="M43.9969 56.5357C44.0801 56.0533 43.68 55.5941 43.1032 55.5099C42.5264 55.4258 41.9912 55.7486 41.908 56.2309C41.8247 56.7132 42.2248 57.1725 42.8016 57.2566C43.3785 57.3408 43.9136 57.018 43.9969 56.5357Z" fill="#EFBB29"/>
<path d="M78.5766 58.7898C78.5766 58.7898 78.656 54.3191 71.0883 57.8185C71.0883 57.8185 75.5069 60.173 78.5766 58.7898Z" fill="#E56382"/>
<path d="M78.5691 62.6706C78.5691 62.6706 80.057 62.7547 79.6628 63.7405C79.2685 64.7262 74.21 66.1365 72.0171 62.6945C69.8241 59.2526 77.0513 62.4273 77.0513 62.4273L78.5691 62.6706Z" fill="#E56382"/>
<path d="M66.7246 55.8107C66.7166 56.5452 66.7937 57.2784 66.9546 57.9979C68.6052 65.0449 78.5691 62.6706 78.5691 62.6706L77.6103 62.2994C77.8436 60.9265 78.9437 58.972 78.9437 58.972C78.5702 59.0604 78.1905 59.1247 77.8074 59.1646C72.3663 59.7618 66.7246 55.8107 66.7246 55.8107Z" fill="#231C2D"/>
<path d="M66.7246 55.8107C66.7166 56.5452 66.7937 57.2784 66.9546 57.9979C72.5313 62.0648 76.2149 60.3868 77.8074 59.1646C72.3663 59.7618 66.7246 55.8107 66.7246 55.8107Z" fill="white"/>
<path d="M81.4632 58.3805C80.1013 59.1723 78.4638 59.5175 76.8429 59.5945C75.2041 59.6578 73.5659 59.4558 72.0031 58.9978C70.4623 58.5146 69.0113 57.8168 67.7008 56.9287C67.0336 56.5136 66.4691 55.9735 65.8747 55.4895C65.33 54.9527 64.8193 54.3876 64.345 53.7971C65.0658 54.1362 65.7121 54.5334 66.3787 54.8948L67.3902 55.4097C67.7147 55.593 68.0492 55.761 68.3924 55.9131C68.7361 56.063 69.0748 56.2168 69.4053 56.382C69.734 56.5513 70.0951 56.6574 70.4363 56.7979C71.1162 57.0787 71.8119 57.3261 72.5204 57.5389C73.9365 57.9593 75.3948 58.2483 76.8736 58.4013C78.3992 58.5571 79.9393 58.5502 81.4632 58.3805Z" fill="#CC7A5E"/>
<g style="mix-blend-mode:soft-light" opacity="0.45">
<path d="M45.8229 48.3047L46.165 57.1025C59.3677 66.9724 70.1904 70.0132 70.1904 70.0132C78.4127 67.3003 83.3165 62.0113 83.4672 61.8483C78.5803 66.0589 70.3684 68.9826 70.3684 68.9826C60.4026 64.6106 52.4488 52.3877 58.1259 41.0489C63.8034 29.7074 80.124 25.1511 80.124 25.1511C83.4857 27.071 90.6173 37.1626 92.1698 39.3898L92.8917 37.3712C87.1192 28.9877 80.9234 23.0553 80.9234 23.0553C59.3421 29.5606 45.8229 48.3047 45.8229 48.3047Z" fill="black"/>
</g>
<path d="M77.6367 49.829C77.6367 49.829 72.4358 53.5201 80.4558 53.559L77.6367 49.829Z" fill="#F4BEAB"/>
<path d="M77.7858 47.3618C77.9005 48.1926 77.9503 49.0201 77.9802 49.8466L77.9193 49.6487C78.4459 50.2342 78.9556 50.8303 79.4485 51.4372C79.9423 52.0436 80.4215 52.6593 80.8862 53.2843L81.1174 53.5946L80.8742 53.8492C80.6395 54.0954 80.3551 54.2977 80.0369 54.4447C79.757 54.5841 79.459 54.6905 79.1502 54.7615C78.5615 54.9055 77.9512 54.9606 77.3433 54.9246C76.7565 54.8991 76.1745 54.8157 75.6071 54.6759C75.0507 54.5345 74.5085 54.3497 73.9863 54.1236C74.5628 54.1569 75.1228 54.2079 75.6812 54.2266C76.2295 54.2466 76.7786 54.235 77.3252 54.1918C77.8489 54.1537 78.3656 54.0569 78.8637 53.9035C79.0967 53.8262 79.3226 53.7319 79.5393 53.6215C79.7249 53.5294 79.8931 53.4104 80.0376 53.2692L80.0257 53.8339C79.5513 53.2151 79.0909 52.5875 78.6443 51.951C78.1972 51.3148 77.7672 50.6677 77.3544 50.0096L77.2807 49.8921L77.2934 49.8115C77.4226 48.9931 77.5718 48.1758 77.7858 47.3618Z" fill="#CC7A5E"/>
<path d="M81.0228 21.2091C81.0228 21.2091 66.2264 23.2739 56.402 33.6066C46.5775 43.9393 41.7072 44.5863 36.25 41.9798C36.25 41.9798 42.129 44.0445 52.022 32.3641C61.915 20.6837 74.6968 19.8335 74.6968 19.8335C74.6968 19.8335 57.7357 11.6263 42.0933 27.1441C42.0933 27.1441 51.5975 7.26114 73.3273 15.4099C73.3273 15.4099 70.7537 10.358 61.0308 10.5987C61.0308 10.5987 75.0625 6.31043 80.9186 15.16L75.0905 12.801C75.0905 12.801 80.5477 15.4075 81.1854 18.3667L75.121 16.4259C75.121 16.4259 79.6598 19.1246 81.0228 21.2091Z" fill="#322A3F"/>
<path d="M83.1526 17.899L87.4186 21.2381L82.8175 19.8909C82.9495 19.9879 85.1147 21.5724 86.401 23.8036C86.401 23.8036 84.1609 22.0446 82.3903 22.3146C82.3903 22.3146 91.541 29.5819 94.0227 37.984C94.0451 38.057 94.068 38.1274 94.0875 38.1999C94.0875 38.1999 94.0894 38.1385 94.0922 38.0209C94.0985 36.8526 93.855 30.1019 87.7466 23.1739C87.9283 23.3211 93.7559 28.0573 95.8909 33.9389C98.0599 39.9113 102.196 37.8009 101.685 41.7222C101.171 45.6457 93.1942 47.6489 94.6235 52.6846C95.9053 57.2054 103.544 58.2772 104.188 62.9623C104.861 60.1776 100.723 56.9617 98.0963 55.3797C95.1241 53.5864 95.7267 49.1501 98.1369 47.5414C100.548 45.9301 105.884 43.5416 105.615 40.3352C105.349 37.1292 99.1432 34.1104 99.1432 34.1104C101.229 25.4229 95.7661 18.9993 89.9056 14.7919C87.7385 14.3699 85.5339 14.1308 83.3194 14.0776C83.3194 14.0776 94.5953 16.2513 96.551 28.6797C96.551 28.6797 91.6603 18.9902 83.1526 17.899Z" fill="#322A3F"/>
<path d="M32.5383 20.5944C34.3073 19.5733 35.7461 17.914 36.6291 15.3852C41.6085 1.12606 54.254 3.27428 54.254 3.27428C42.9635 3.80441 39.3432 15.784 39.2346 16.1596C47.7615 1.13889 64.5492 4.63975 69.4792 6.05905C65.3459 2.77953 57.4048 -1.67779 46.5751 0.643951C36.0357 2.90615 30.3419 13.2771 32.5383 20.5944Z" fill="#322A3F"/>
<path d="M223.589 128.289C227.607 132.137 224.016 139.919 217.012 140.757C215.784 140.902 213.654 140.851 210.975 140.663C198.426 139.765 173.878 135.891 173.878 135.891C173.878 135.891 169.348 137.875 164.502 136.977C162.393 136.61 160.448 135.686 158.902 134.318C154.009 130.033 156.399 126.887 157.618 125.758C157.789 125.592 157.976 125.44 158.176 125.304C158.176 125.304 158.139 125.279 158.074 125.228C157.106 124.449 149.925 118.232 162.362 113.572C162.346 113.507 162.334 113.441 162.325 113.375C162.315 113.315 162.297 113.247 162.288 113.187C161.06 106.696 165.097 104.336 169.804 106.773C170.978 107.396 172.044 108.177 172.966 109.091C171.283 105.157 175.599 105.2 175.599 105.2C175.599 105.2 175.608 104.901 175.673 104.439C175.925 102.609 177.115 98.2817 182.734 100.898C183.333 101.187 183.914 101.507 184.473 101.856C185.174 101.106 186.083 100.544 187.103 100.229C188.123 99.9146 189.217 99.8592 190.268 100.069C190.278 100.069 190.287 100.078 190.296 100.078C190.296 100.078 193.245 94.844 197.654 95.1689H197.664C199.645 95.3143 201.924 96.5885 204.361 99.9493C209.459 95.2887 213.412 100.351 213.598 106.662C215.952 106.072 217.784 106.252 219.096 106.936C221.598 108.244 222.156 111.425 220.696 114.701C225.384 116.368 222.965 119.421 222.965 119.421C222.965 119.421 229.709 122.978 223.589 128.289Z" fill="#351205"/>
<path d="M216.554 148.246C216.557 148.246 216.559 148.249 216.562 148.249C216.903 148.443 217.255 148.619 217.618 148.775C226.628 152.719 229.298 141.444 226.321 138.387C225.598 137.655 224.859 137.254 224.157 137.096C221.896 136.56 219.934 138.256 219.934 138.256C219.112 138.755 218.329 139.306 217.59 139.904L217.577 139.916C215.017 141.985 211.861 145.582 216.554 148.246Z" fill="#F5BE9B"/>
<g style="mix-blend-mode:soft-light" opacity="0.45">
<path d="M216.554 148.246C216.557 148.246 216.559 148.249 216.562 148.249C221.42 150.014 225.26 145.108 225.114 142.499C224.968 139.887 222.343 140.987 222.343 140.987C222.622 139.581 223.242 138.251 224.157 137.096C221.896 136.56 219.934 138.256 219.934 138.256C219.112 138.755 218.329 139.306 217.59 139.904L217.577 139.916C215.017 141.985 211.861 145.582 216.554 148.246Z" fill="black"/>
</g>
<path d="M218.017 146.719C218.179 145.893 218.46 145.091 218.853 144.334C219.236 143.561 219.727 142.838 220.314 142.182C220.929 141.545 221.661 140.915 222.64 140.653C223.122 140.518 223.637 140.515 224.121 140.643C224.574 140.775 224.98 141.015 225.299 141.338C224.452 140.997 223.6 140.954 222.89 141.28C222.175 141.592 221.57 142.145 221.023 142.735C220.47 143.348 219.956 143.991 219.484 144.658L218.017 146.719Z" fill="#C48360"/>
<g style="mix-blend-mode:soft-light" opacity="0.45">
<path d="M223.589 128.289C227.607 132.137 224.016 139.919 217.012 140.757C215.784 140.902 213.654 140.851 210.975 140.663C208.473 134.497 208.249 126.476 211.059 118.463C213.031 114.145 216.147 110.134 219.096 106.936C221.598 108.244 222.156 111.425 220.696 114.701C225.384 116.368 222.965 119.421 222.965 119.421C222.965 119.421 229.709 122.979 223.589 128.289Z" fill="black"/>
</g>
<path d="M174.556 204.083L197.625 191.075L181.563 180.702L168.414 201.099L174.556 204.083Z" fill="#F5BE9B"/>
<g style="mix-blend-mode:soft-light" opacity="0.45">
<path d="M174.556 204.083L197.625 191.075L181.563 180.702L168.414 201.099L174.556 204.083Z" fill="black"/>
</g>
<path d="M224.287 215.558L227.563 214.44C227.563 214.44 228.461 212.296 229.938 215.196C231.416 218.096 231.96 220.048 231.961 221.609C231.961 223.171 230.839 226.294 230.202 227.354C229.565 228.413 227.988 225.151 226.881 223.617C225.774 222.083 223.559 215.712 223.559 215.712L224.287 215.558Z" fill="black"/>
<path d="M207.18 198.743L199.171 200.412C199.171 200.412 189.223 205.101 182.246 209.619C175.269 214.136 170.901 217.929 171.508 221.331C172.115 224.733 175.087 229.64 177.757 231.202C180.426 232.764 194.379 230.142 194.379 230.142C194.379 230.142 193.348 234.492 193.348 235.831C193.348 237.169 200.036 240.516 206.27 240.181C210.577 239.979 214.696 238.496 218.009 235.956C219.601 234.743 226.881 223.617 226.881 223.617C226.881 223.617 227.199 220.229 225.834 216.966L227.563 214.206L207.18 198.743Z" fill="#231C2D"/>
<g style="mix-blend-mode:soft-light" opacity="0.45">
<path d="M225.83 216.968C227.198 220.226 226.881 223.621 226.881 223.621C226.881 223.621 219.598 234.747 218.007 235.952C214.696 238.493 210.576 239.976 206.268 240.177C200.557 240.493 194.464 237.705 193.487 236.209C195.224 236.877 197.057 237.312 198.929 237.5C204.873 238.116 210.761 232.036 210.64 226.016C210.519 219.995 199.896 213.744 199.896 213.744L194.082 231.471L194.073 231.48C194.25 230.702 194.38 230.146 194.38 230.146C194.38 230.146 180.427 232.763 177.757 231.198C175.441 229.847 172.902 225.99 171.878 222.766C173.348 224.562 175.208 226.093 177.329 226.187C182.548 226.409 192.017 218.43 194.38 213.676C196.287 209.836 193.403 205.432 192.231 203.893C196.129 201.849 199.171 200.412 199.171 200.412L207.18 198.745L227.561 214.206L225.83 216.968Z" fill="black"/>
</g>
<path d="M225.834 216.966C223.675 220.178 221.244 223.21 218.71 226.168C217.428 227.637 216.12 229.088 214.745 230.487C213.375 231.887 211.937 233.252 210.334 234.437C211.682 233.015 212.916 231.524 214.19 230.057L217.982 225.636C220.533 222.703 223.09 219.774 225.834 216.966Z" fill="black"/>
<path d="M228.575 213.59C228.39 213.919 228.172 214.232 227.923 214.522C222.677 213.462 209.096 204.457 201.273 201.191C200.761 200.977 200.287 200.789 199.831 200.635C199.608 200.549 199.384 200.481 199.171 200.412C199.231 200.359 199.296 200.31 199.366 200.267C201.366 198.702 206.063 198.069 212.045 194.546C212.018 194.529 211.993 194.509 211.97 194.486C207.933 191.724 203.822 186.67 201.729 183.908H201.719C200.836 182.728 200.305 181.958 200.305 181.958L196.929 185.593L196.389 186.183C195.719 186.901 194.938 187.748 194.017 188.74C193.673 189.107 193.32 189.492 192.938 189.903C192.915 189.901 192.893 189.895 192.873 189.886C188.668 189.022 182.566 183.335 180.901 181.719C180.631 181.445 180.473 181.291 180.473 181.291C180.494 181.249 180.519 181.209 180.548 181.172C181.227 179.932 186.938 169.567 187.069 169.37C187.134 169.268 189.58 167.463 192.175 165.574C193.31 164.753 194.473 163.906 195.478 163.179C197.124 161.973 198.352 161.084 198.352 161.084L194.985 155.774L209.849 152.952L211.728 161.991C212.445 162.504 213.44 163.256 214.575 164.137C218.379 167.096 223.719 171.466 225.077 172.919C226.835 174.818 227.682 183.292 228.9 193.888C230.007 203.585 230.658 210.007 228.575 213.59Z" fill="#25799E"/>
<path d="M214.575 164.137C211.815 166.152 208.347 167.167 204.828 166.991C201.309 166.814 197.983 165.458 195.478 163.179C197.124 161.973 198.352 161.084 198.352 161.084L194.985 155.774L209.849 152.952L211.728 161.991C212.445 162.504 213.44 163.256 214.575 164.137Z" fill="#F5BE9B"/>
<path d="M200.305 181.958C201.253 180.539 202.312 179.184 203.473 177.906C204.61 176.609 205.849 175.39 207.18 174.26C206.233 175.68 205.174 177.035 204.012 178.312C202.874 179.609 201.635 180.827 200.305 181.958Z" fill="#115972"/>
<path d="M194.379 230.142C194.705 228.739 195.072 227.346 195.463 225.96C195.859 224.575 196.282 223.197 196.715 221.822C197.599 219.077 198.542 216.349 199.572 213.648L199.622 213.934C199.098 213.228 198.591 212.511 198.089 211.793C197.599 211.068 197.09 210.356 196.624 209.619C197.25 210.257 197.832 210.921 198.434 211.571C199.024 212.229 199.609 212.888 200.177 213.557L200.277 213.675L200.228 213.844C199.417 216.608 198.52 219.345 197.564 222.066C197.077 223.424 196.58 224.779 196.055 226.126C195.526 227.473 194.974 228.813 194.379 230.142Z" fill="black"/>
<path d="M212.045 194.546C213.102 193.06 214.268 191.642 215.535 190.302C216.778 188.942 218.121 187.663 219.556 186.474C218.499 187.961 217.333 189.379 216.065 190.718C214.821 192.077 213.478 193.355 212.045 194.546Z" fill="#115972"/>
<g style="mix-blend-mode:soft-light" opacity="0.45">
<path d="M228.574 213.59C224.882 212.966 218.026 209.195 207.905 201.815C219.496 207.219 221.254 201.25 222.891 192.391C219.951 195.102 214.798 196.846 214.482 196.949C214.761 196.795 219.403 194.161 222.342 188.705C217.012 195.683 205.942 199.728 201.273 201.191C200.761 200.977 200.287 200.789 199.831 200.635C199.608 200.549 199.384 200.481 199.17 200.412C199.231 200.359 199.296 200.31 199.366 200.267C201.366 198.702 206.063 198.069 212.045 194.546C212.018 194.529 211.993 194.508 211.97 194.486C207.933 191.724 203.822 186.67 201.729 183.908C201.809 183.909 201.89 183.906 201.97 183.899C205.682 183.848 212.965 182.548 219.282 174.262C205.626 172.748 197.273 169.165 192.175 165.574C193.31 164.753 194.473 163.906 195.477 163.179C195.608 163.085 195.729 162.991 195.859 162.905C201.301 165.274 208.352 164.368 206.956 161.879C205.896 159.998 200.184 159.348 197.115 159.134L194.985 155.774L209.849 152.952L211.728 161.99C212.445 162.504 213.44 163.256 214.575 164.137C218.379 167.096 223.719 171.465 225.077 172.919C226.835 174.818 227.682 183.292 228.9 193.888C230.007 203.585 230.658 210.007 228.574 213.59Z" fill="black"/>
</g>
<path d="M199.295 200.245C199.007 200.142 199.565 200.331 199.295 200.245C193.063 202.477 184.384 205.718 174.859 207.001C172.756 211.567 165.222 214.586 162.236 214.808C159.259 215.039 156.664 214.646 156.664 213.765C156.664 212.884 162.394 209.643 163.808 207.719C165.222 205.795 165.808 203.683 164.738 202.811C163.947 202.349 159.92 203.349 158.282 202.032C156.645 200.715 156.413 199.792 158.664 199.672C160.915 199.544 162.924 197.56 164.44 197.953C165.966 198.355 168.905 200.989 173.77 202.032C179.547 201.032 193.063 189.735 193.063 189.735L200.43 181.791C200.43 181.791 206.393 190.445 212.169 194.379C205.984 198.022 202.225 198.743 199.295 200.245Z" fill="#F5BE9B"/>
<g style="mix-blend-mode:soft-light" opacity="0.45">
<path d="M199.301 200.233C199.318 200.239 199.333 200.248 199.347 200.258C199.328 200.254 199.31 200.248 199.292 200.241C199.293 200.241 199.294 200.241 199.295 200.241C199.296 200.24 199.297 200.24 199.298 200.239C199.299 200.238 199.3 200.237 199.3 200.236C199.301 200.235 199.301 200.234 199.301 200.233Z" fill="black"/>
</g>
<g style="mix-blend-mode:soft-light" opacity="0.45">
<path d="M199.236 200.216C199.252 200.228 199.271 200.236 199.292 200.241C193.059 202.473 184.38 205.714 174.855 206.997C172.753 211.564 165.218 214.582 162.232 214.805C159.255 215.035 156.66 214.642 156.66 213.761C156.66 212.881 162.39 209.639 163.804 207.715C165.218 205.791 165.804 203.679 164.734 202.807C163.944 202.345 159.916 203.346 158.278 202.029C158.057 201.851 157.845 201.663 157.646 201.464C159.134 201.362 161.339 201.233 163.739 201.097C168.046 200.866 171.869 203.482 177.273 202.815C182.669 202.148 203.18 189.766 203.18 189.766C203.18 189.766 208.37 193.323 212.063 194.307C212.101 194.332 212.129 194.349 212.166 194.375C205.989 198.018 202.231 198.745 199.301 200.233C199.278 200.232 199.255 200.226 199.236 200.216Z" fill="black"/>
</g>
<g style="mix-blend-mode:soft-light" opacity="0.45">
<path d="M206.603 174.903L196.929 185.593L196.389 186.183C195.719 186.901 194.938 187.748 194.017 188.74C193.673 189.107 193.32 189.492 192.938 189.903C192.915 189.901 192.893 189.895 192.873 189.885C188.668 189.022 182.566 183.335 180.901 181.719C180.631 181.445 180.473 181.291 180.473 181.291C180.494 181.249 180.519 181.209 180.548 181.171C193.496 182.719 206.603 174.903 206.603 174.903Z" fill="black"/>
</g>
<path d="M219.105 138.79C218.807 142.809 217.784 146.085 216.268 148.753C210.352 159.143 196.947 160.237 189.71 159.254C186.161 158.779 182.76 157.622 179.729 155.859C179.72 155.85 179.72 155.85 179.71 155.85C176.501 153.969 174.483 151.857 173.813 150.779C172.604 148.83 166.781 129.751 166.781 129.751C168.04 130.133 169.34 130.388 170.66 130.512H170.669C179.869 131.325 181.822 123.569 181.822 123.569C181.822 123.569 187.766 126.69 192.938 121.003C202.296 124.851 203.905 117.796 203.905 117.796C203.905 117.796 207.273 120.473 211.058 118.463C207.468 127.913 209.822 133.685 219.105 138.79Z" fill="#F5BE9B"/>
<g style="mix-blend-mode:soft-light" opacity="0.45">
<path d="M219.105 138.79C218.807 142.809 217.784 146.085 216.268 148.753C208.863 157.655 197.18 160.708 181.087 156.244C199.05 161.093 212.156 150.788 211.059 142.219C209.924 133.437 200.203 125.681 185.701 127.579C177.348 133.086 170.967 130.632 170.669 130.512C179.869 131.325 181.822 123.569 181.822 123.569C181.822 123.569 187.766 126.69 192.938 121.003C202.296 124.851 203.905 117.796 203.905 117.796C203.905 117.796 207.273 120.473 211.059 118.463C207.468 127.913 209.822 133.685 219.105 138.79Z" fill="black"/>
</g>
<path d="M181.639 151.004C182.481 151.354 183.355 151.632 184.251 151.837C185.129 152.041 186.032 152.142 186.938 152.138H186.916C188.792 151.971 190.65 151.664 192.473 151.223C194.296 150.789 196.084 150.239 197.825 149.577C199.57 148.922 201.256 148.14 202.865 147.238C204.468 146.329 206.002 145.296 207.271 143.976C206.238 145.464 204.777 146.687 203.22 147.728C201.641 148.755 199.951 149.628 198.177 150.335C196.405 151.046 194.568 151.61 192.687 152.02C190.805 152.433 188.883 152.665 186.949 152.713H186.928L186.927 152.713C185.975 152.654 185.037 152.466 184.145 152.155C183.263 151.862 182.422 151.476 181.639 151.003L181.639 151.004Z" fill="#C48360"/>
<path d="M205.812 142.807C206.205 142.896 206.561 143.093 206.831 143.37C207.11 143.644 207.317 143.972 207.436 144.331C207.558 144.692 207.581 145.075 207.504 145.446C207.437 145.814 207.252 146.155 206.972 146.425C206.879 146.052 206.849 145.737 206.778 145.436C206.721 145.146 206.644 144.86 206.547 144.58C206.336 143.978 206.09 143.386 205.812 142.807Z" fill="#C48360"/>
<g style="mix-blend-mode:soft-light" opacity="0.45">
<path d="M198.29 133.98C196.999 134.209 196.333 136.211 196.803 138.452C197.274 140.692 198.702 142.323 199.993 142.094C201.284 141.865 201.95 139.863 201.479 137.622C201.009 135.382 199.581 133.751 198.29 133.98Z" fill="black"/>
</g>
<path d="M199.92 141.745C200.849 141.581 201.328 140.14 200.99 138.527C200.651 136.914 199.623 135.741 198.694 135.905C197.765 136.07 197.286 137.511 197.624 139.124C197.963 140.737 198.99 141.91 199.92 141.745Z" fill="#351205"/>
<path d="M199.443 137.82C199.476 137.977 199.458 138.14 199.39 138.287C199.323 138.434 199.209 138.56 199.064 138.648C198.919 138.736 198.749 138.783 198.575 138.782C198.401 138.781 198.231 138.733 198.087 138.643C197.943 138.554 197.831 138.427 197.765 138.279C197.699 138.13 197.683 137.968 197.718 137.811C197.753 137.654 197.838 137.511 197.961 137.398C198.085 137.286 198.242 137.21 198.413 137.179C198.642 137.139 198.879 137.183 199.073 137.304C199.266 137.424 199.399 137.61 199.443 137.82Z" fill="white"/>
<path d="M199.909 138.898C199.923 138.966 199.915 139.038 199.886 139.102C199.856 139.167 199.807 139.222 199.743 139.26C199.679 139.299 199.605 139.319 199.529 139.319C199.452 139.318 199.378 139.297 199.315 139.258C199.252 139.219 199.203 139.163 199.174 139.098C199.145 139.033 199.138 138.962 199.153 138.894C199.169 138.825 199.206 138.762 199.26 138.713C199.314 138.664 199.383 138.63 199.458 138.617C199.508 138.608 199.559 138.608 199.608 138.618C199.658 138.627 199.705 138.645 199.747 138.671C199.789 138.697 199.824 138.731 199.852 138.77C199.88 138.808 199.899 138.852 199.909 138.898Z" fill="white"/>
<g style="mix-blend-mode:soft-light" opacity="0.45">
<path d="M177.575 138.43C176.402 138.638 175.797 140.457 176.224 142.492C176.651 144.528 177.949 146.009 179.122 145.801C180.295 145.593 180.899 143.774 180.472 141.739C180.045 139.703 178.748 138.222 177.575 138.43Z" fill="black"/>
</g>
<path d="M180.027 142.56C180.335 144.025 179.9 145.334 179.055 145.484C178.211 145.634 177.277 144.568 176.97 143.103C176.662 141.638 177.097 140.329 177.942 140.179C178.786 140.029 179.72 141.095 180.027 142.56Z" fill="#351205"/>
<path d="M178.622 141.918C178.652 142.061 178.636 142.209 178.574 142.342C178.513 142.476 178.41 142.591 178.278 142.671C178.146 142.751 177.991 142.793 177.833 142.792C177.675 142.791 177.521 142.747 177.39 142.666C177.259 142.584 177.157 142.469 177.098 142.335C177.038 142.2 177.023 142.052 177.055 141.91C177.087 141.768 177.164 141.637 177.276 141.535C177.388 141.433 177.531 141.364 177.686 141.336C177.789 141.318 177.895 141.318 177.998 141.338C178.101 141.357 178.199 141.395 178.286 141.449C178.373 141.503 178.447 141.572 178.505 141.653C178.563 141.733 178.603 141.823 178.622 141.918Z" fill="white"/>
<path d="M179.045 142.897C179.059 142.96 179.051 143.024 179.024 143.083C178.998 143.142 178.952 143.192 178.895 143.227C178.837 143.262 178.769 143.28 178.7 143.28C178.631 143.279 178.563 143.26 178.506 143.225C178.448 143.189 178.404 143.138 178.378 143.079C178.352 143.021 178.345 142.956 178.359 142.893C178.373 142.831 178.407 142.774 178.456 142.729C178.505 142.685 178.568 142.654 178.636 142.642C178.727 142.626 178.821 142.644 178.898 142.692C178.975 142.739 179.028 142.813 179.045 142.897Z" fill="white"/>
<path d="M194.455 129.128C195.069 128.857 195.743 128.72 196.424 128.726C197.08 128.721 197.733 128.817 198.354 129.011C198.996 129.205 199.59 129.513 200.103 129.918C200.613 130.339 201.063 130.889 201.174 131.554L199.377 131.086C198.834 130.938 198.291 130.805 197.757 130.631C197.221 130.458 196.677 130.272 196.129 130.038C195.536 129.792 194.975 129.486 194.455 129.128Z" fill="#351205"/>
<path d="M174.269 138.436C174.216 137.9 174.298 137.359 174.506 136.856C174.699 136.368 174.979 135.914 175.335 135.511C175.697 135.093 176.145 134.745 176.653 134.486C177.177 134.237 177.791 134.065 178.408 134.183L177.46 135.374C177.168 135.732 176.889 136.095 176.576 136.439C175.942 137.131 175.298 137.825 174.269 138.436Z" fill="#351205"/>
<path d="M185.734 145.036C186.615 145.692 187.498 146.009 188.431 145.996C188.923 146.007 189.413 145.928 189.872 145.763C190.331 145.598 190.749 145.351 191.103 145.036C191.054 145.306 190.944 145.564 190.782 145.794C190.62 146.023 190.408 146.22 190.16 146.372C189.65 146.689 189.047 146.856 188.431 146.851C187.812 146.854 187.208 146.678 186.706 146.346C186.217 146.035 185.871 145.568 185.734 145.036Z" fill="#C48360"/>
<path d="M158.074 125.228C157.106 124.449 149.925 118.232 162.362 113.572C162.346 113.507 162.334 113.441 162.325 113.375C163.454 115.065 164.166 116.963 164.409 118.934C164.911 122.79 161.19 124.484 158.074 125.228Z" fill="#4F1D0E"/>
<path d="M164.502 136.977C162.393 136.61 160.448 135.686 158.902 134.318C154.009 130.033 156.399 126.886 157.618 125.758C161.153 127.767 165.59 131.462 164.502 136.977Z" fill="#4F1D0E"/>
<path d="M169.804 106.773C169.878 110.066 168.613 113.957 162.288 113.187C161.06 106.696 165.097 104.336 169.804 106.773Z" fill="#4F1D0E"/>
<path d="M182.734 100.898C182.408 103.139 180.204 105.516 175.673 104.439C175.925 102.609 177.115 98.2817 182.734 100.898Z" fill="#4F1D0E"/>
<path d="M190.296 100.078C190.296 100.078 193.245 94.844 197.654 95.1689H197.664C201.915 98.8461 199.226 104.003 190.296 100.078Z" fill="#4F1D0E"/>
<path d="M144.957 240.202C144.957 240.202 145.443 236.779 150.114 234.715C154.785 232.652 156.552 228.693 159.093 228.581C161.633 228.468 161.277 229.417 164.734 232.373C168.192 235.329 173.349 235.831 175.29 237.56C177.232 239.289 181.721 242.077 180.144 242.412C178.566 242.746 174.771 241.798 169.025 242.412C163.278 243.025 155.695 242.727 150.175 242.486C144.654 242.244 144.169 243.346 144.957 240.202Z" fill="#4F1D0E"/>
<path d="M158.04 230.937C158.04 230.937 160.952 232.861 157.585 234.534C154.218 236.207 151.534 238.801 154.309 239.344C157.085 239.888 152.034 240.725 149.805 240.641C147.575 240.557 145.664 239.052 148.485 236.918C151.306 234.785 153.672 235.496 155.083 233.572C156.493 231.648 157.22 230.131 158.04 230.937Z" fill="#662A1D"/>
<path d="M162.567 234.701C162.567 234.701 163.409 234.409 166.731 236.291C166.798 236.329 166.867 236.366 166.936 236.402C170.269 238.115 175.416 236.734 175.194 237.922C174.966 239.135 176.07 241.059 171.878 240.516C167.686 239.972 165.866 239.595 163.955 239.554C162.044 239.512 160.952 241.854 159.633 241.603C158.313 241.352 159.041 238.215 160.088 237.462C161.134 236.709 164.137 238.176 166.321 238.153C168.505 238.131 166.321 237.044 163.5 236.96C160.679 236.877 157.358 238.591 158.131 236.709C158.905 234.827 161.544 232.987 161.68 232.066C161.817 231.146 163.5 233.196 166.23 234.283C168.96 235.371 164.046 233.572 162.567 234.701Z" fill="#662A1D"/>
</svg>
